<svg width="90" height="90" fill="none" xmlns="http://www.w3.org/2000/svg"><g clip-path="url(#a)"><path d="M41.98 46.325c.001-.55.146-1.09.42-1.567a3.175 3.175 0 0 1 2.106-5.967 3.922 3.922 0 0 0-5.066-3.534l-12.003 3.649a3.927 3.927 0 0 0-2.32 5.593L38.572 72.24c1.719 3.23 6.368 2.502 7.247-.767.103-.426.14-.865.11-1.302l-.967-20.675a3.177 3.177 0 0 1-2.982-3.172Z" fill="#FF8B7C"/><path d="M24.887 41.362a6.604 6.604 0 0 0-.074.224.28.28 0 0 0 .074-.224ZM35.384 38.4a.254.254 0 0 0 .08-.013l2.855-.873a.277.277 0 0 0 .133-.443.277.277 0 0 0-.296-.087l-2.852.872a.276.276 0 0 0-.085.489.282.282 0 0 0 .165.055ZM34.682 38.324a.277.277 0 0 0-.347-.183l-8.815 2.684a.278.278 0 0 0 .08.544.253.253 0 0 0 .081-.014l8.817-2.684a.28.28 0 0 0 .184-.347ZM27.15 42.807a.28.28 0 0 0-.346-.183l-2.094.64c.03.183.072.364.125.541l2.13-.648a.28.28 0 0 0 .186-.35ZM39.114 39.152a.278.278 0 0 0-.347-.186l-7.182 2.195a.28.28 0 0 0-.083.49.275.275 0 0 0 .166.053.25.25 0 0 0 .08-.01l7.18-2.196a.278.278 0 0 0 .186-.346ZM30.713 41.43l-2.951.894a.278.278 0 0 0 .163.53l2.949-.894a.277.277 0 1 0-.161-.53ZM36.337 42.181a.28.28 0 0 0 .347.184l2.855-.873a.279.279 0 0 0-.164-.532l-2.852.872a.28.28 0 0 0-.186.35ZM35.834 42.333a.278.278 0 0 0-.347-.183l-10.019 3.063.247.505 9.935-3.036a.278.278 0 0 0 .184-.349ZM27.495 47.065a.277.277 0 0 0-.346-.186l-.759.224.246.506.671-.206a.28.28 0 0 0 .188-.338ZM40.333 43.139a.278.278 0 0 0-.347-.184l-5.39 1.651a.277.277 0 1 0 .164.53l5.398-1.648a.279.279 0 0 0 .175-.35ZM33.742 44.864l-5.705 1.745a.277.277 0 1 0 .163.53l5.705-1.743a.278.278 0 1 0-.163-.532Z" fill="#DC6757"/><path d="M42.427 35.957a.278.278 0 0 0-.349-.184l-3.39 1.036a.277.277 0 0 0 .081.544.358.358 0 0 0 .083 0l3.39-1.038a.276.276 0 0 0 .2-.247.277.277 0 0 0-.015-.111ZM43.114 36.01c-.074-.062-.152-.125-.224-.183a.274.274 0 0 0 .224.184ZM39.114 39.152a.28.28 0 0 0 .266.197.253.253 0 0 0 .08-.014l4.869-1.488a3.75 3.75 0 0 0-.202-.52l-4.832 1.476a.28.28 0 0 0-.181.349ZM39.935 40.79a.278.278 0 1 0 .16.532l.504-.154c.05-.224.126-.442.224-.65l-.888.271ZM40.6 43.335a.25.25 0 0 0 .08-.01l.176-.055a3.173 3.173 0 0 1-.205-.519l-.132.04a.277.277 0 0 0-.186.348.277.277 0 0 0 .266.196ZM40.595 44.949l-2.853.872a.277.277 0 0 0 .08.544.248.248 0 0 0 .081 0l2.855-.873a.278.278 0 0 0 .186-.347.282.282 0 0 0-.239-.206.28.28 0 0 0-.11.01ZM37.12 46.302a.276.276 0 0 0-.346-.183l-8.815 2.684a.28.28 0 0 0 .08.546.254.254 0 0 0 .08-.013l8.818-2.685a.276.276 0 0 0 .183-.349ZM29.59 50.786a.278.278 0 0 0-.347-.184l-1.012.309.246.505.927-.284a.277.277 0 0 0 .186-.346ZM41.206 46.944l-7.182 2.195a.277.277 0 0 0 .083.544.332.332 0 0 0 .08-.012l7.182-2.197a.278.278 0 0 0 .183-.346.278.278 0 0 0-.346-.184ZM33.151 49.407l-2.95.895a.278.278 0 1 0 .163.53l2.948-.894a.278.278 0 1 0-.16-.53ZM39.042 50.354a.273.273 0 0 0 .083-.011l2.852-.873a.279.279 0 0 0-.163-.532l-2.853.872a.278.278 0 0 0 .081.544ZM38.275 50.311a.276.276 0 0 0-.35-.183l-8.772 2.685.246.508 8.69-2.658a.277.277 0 0 0 .186-.352ZM42.772 51.117a.276.276 0 0 0-.345-.188l-5.398 1.65a.277.277 0 1 0 .16.531l5.401-1.651a.277.277 0 0 0 .182-.342ZM36.183 52.842l-5.707 1.743a.282.282 0 0 0-.083.491.278.278 0 0 0 .246.041l5.705-1.745a.28.28 0 0 0 .208-.239.279.279 0 0 0-.259-.307.279.279 0 0 0-.11.016ZM39.995 54.146a.28.28 0 0 0 .267.197.274.274 0 0 0 .082 0l2.853-.873a.278.278 0 1 0-.161-.532l-2.846.861a.277.277 0 0 0-.195.347ZM39.559 54.285a.278.278 0 0 0-.347-.186l-8.215 2.508.246.508 8.133-2.488a.275.275 0 0 0 .183-.342ZM43.644 54.922l-7.18 2.195a.277.277 0 0 0 .081.544.331.331 0 0 0 .08-.011l7.183-2.197a.277.277 0 1 0-.164-.53ZM35.59 57.383l-2.949.895a.278.278 0 1 0 .161.533l2.949-.895a.278.278 0 0 0-.161-.532ZM44.255 56.916l-2.855.872a.277.277 0 0 0 .08.544.351.351 0 0 0 .084-.011l2.852-.873a.278.278 0 0 0 .186-.346.28.28 0 0 0-.347-.186ZM40.713 58.29a.278.278 0 0 0-.346-.186l-7.529 2.302.246.506 7.444-2.276a.277.277 0 0 0 .185-.346ZM44.863 58.91l-5.398 1.65a.277.277 0 0 0 .08.544.253.253 0 0 0 .08 0l5.402-1.651a.277.277 0 0 0 .183-.347.278.278 0 0 0-.347-.197ZM38.968 60.997a.275.275 0 0 0-.347-.184L33.76 62.3l.246.505 4.779-1.46a.278.278 0 0 0 .183-.347ZM40.944 45.134a.277.277 0 0 0 .346.184l.96-.293a3.19 3.19 0 0 1 .14-.276 3.308 3.308 0 0 1-.41-.223l-.853.261a.275.275 0 0 0-.183.347Z" fill="#DC6757"/><path d="M41.738 46.781a.277.277 0 0 0 .08.544.253.253 0 0 0 .081 0l.208-.063a3.173 3.173 0 0 1-.114-.548l-.255.067ZM43.382 53.112a.277.277 0 0 0 .347.184l1.396-.427-.027-.573-1.532.468a.282.282 0 0 0-.184.348ZM42.373 48.768a.277.277 0 0 0 .08.543.337.337 0 0 0 .081-.01l.929-.285a3.126 3.126 0 0 1-.535-.418l-.555.17ZM42.772 51.117a.28.28 0 0 0 .346.185l1.907-.584-.027-.572-2.04.624a.276.276 0 0 0-.186.347ZM43.993 55.106a.28.28 0 0 0 .347.185l.895-.272-.027-.573-1.022.313a.277.277 0 0 0-.193.347ZM44.626 57.093a.274.274 0 0 0 .35.183l.35-.107-.026-.573-.488.15a.276.276 0 0 0-.186.347ZM45.21 59.095a.27.27 0 0 0 .224.188l-.024-.537a.279.279 0 0 0-.2.349ZM42.62 61.777a.278.278 0 0 0-.193.338.275.275 0 0 0 .264.197.328.328 0 0 0 .083 0l2.745-.841-.027-.566h-.027l-2.845.872ZM42 62.258a.28.28 0 0 0-.35-.185l-6.968 2.132.246.505 6.886-2.105a.278.278 0 0 0 .186-.347ZM38.718 65.442a.282.282 0 0 0 .266.197.25.25 0 0 0 .08-.013l6.565-2.014-.027-.573-6.699 2.05a.277.277 0 0 0-.185.353ZM38.375 65.547a.276.276 0 0 0-.346-.185l-2.426.742.244.506 2.345-.716a.28.28 0 0 0 .183-.347ZM43.655 66.113a.275.275 0 0 0 .347.184l1.727-.528-.026-.573-1.864.57a.277.277 0 0 0-.184.347ZM43.152 66.268a.278.278 0 0 0-.347-.186l-6.282 1.922.246.505 6.197-1.895a.278.278 0 0 0 .186-.346ZM41.718 68.885a.28.28 0 0 0 .266.197.347.347 0 0 0 .083 0l3.763-1.152-.027-.573-3.9 1.193a.277.277 0 0 0-.185.335ZM41.407 68.981a.278.278 0 0 0-.347-.185L37.445 69.9l.246.508 3.532-1.08a.28.28 0 0 0 .184-.347ZM44.875 70.102a.277.277 0 0 0 .347.184l.709-.224-.027-.575-.846.26a.276.276 0 0 0-.197.245.278.278 0 0 0 .014.11ZM44.44 70.234a.28.28 0 0 0-.346-.183l-5.725 1.75.223.447c0 .022.025.045.038.067l5.636-1.723a.28.28 0 0 0 .175-.358ZM41.156 73.42a.281.281 0 0 0 .35.184l3.93-1.197c.126-.213.23-.438.311-.671l-4.405 1.342a.28.28 0 0 0-.186.342ZM40.814 73.525a.278.278 0 0 0-.347-.183l-.758.224c.2.15.414.28.64.387l.282-.085a.282.282 0 0 0 .183-.343Z" fill="#DC6757"/><path d="M31.306 36.503S12.318 33.963 12 18.696c0 0 17.979-1.998 19.306 17.807Z" fill="#4F7D3A"/><path d="M31.764 27.918S23.967 19.204 29.88 12c0 0 9.129 6.213 1.884 15.918ZM34.373 35.737S32.247 22.8 42.946 19.074c-.009 0 5.103 11.24-8.573 16.663Z" fill="#4F7D3A"/><path d="M67.418 70.08c.051-.479-.2-.852-.126-1.343.135-.894 1.206-1.6 2.088-2.013.881-.414 1.948-1.01 2.224-1.924.302-1-.611-1.714-.146-2.703.53-1.136 2.05-1.186 3.094-1.93 2.334-1.667.564-4.421 1.613-6.663.546-1.17 1.343-2.215 1.822-3.414.67-1.647.626-3.804-1.464-4.636a3.662 3.662 0 0 0-1.597-.235c-1.81.123-3.278 1.172-4.85 1.935-2.137 1.036-5.296.374-6.699 2.73-.656 1.103-.58 2.62-1.667 3.244-.948.544-1.734-.307-2.707.078-.895.35-1.385 1.463-1.732 2.376-.346.913-.96 2.04-1.84 2.249-.477.112-.869-.108-1.343-.014-1.105.224-1.772 1.772-1.933 2.909-.316 2.215-.466 6.595-.593 8.761-.074 1.273-1.93 5.01-3.249 7.544a.616.616 0 0 0 .918.776c2.237-1.69 5.521-4.053 6.774-4.233 2.148-.306 6.502-.818 8.683-1.317 1.11-.264 2.604-1.059 2.73-2.177Z" fill="#87BD40"/><path d="M74.26 54.56h-4.2l3.183-3.459a.492.492 0 1 0-.722-.671l-2.967 3.22v-3.804a.492.492 0 0 0-.984 0v4.886l-2.627 2.853v-3.848a.494.494 0 0 0-.986 0v4.922l-2.461 2.684v-4.107a.492.492 0 1 0-.985 0v5.159l-7.065 7.663a.492.492 0 1 0 .722.67l7.187-7.8h4.837a.492.492 0 0 0 0-.985H63.26l2.324-2.521h5.061a.492.492 0 0 0 0-.985h-4.155l2.66-2.888h5.108a.492.492 0 1 0 0-.985v-.004Z" fill="#9FCA66"/><path d="M66.474 36.633a3.307 3.307 0 1 0 0-6.614 3.307 3.307 0 0 0 0 6.614ZM56.057 33.574a4.873 4.873 0 1 0 0-9.745 4.873 4.873 0 0 0 0 9.745Z" fill="#3CB6CE"/><path d="M56.057 33.574a4.873 4.873 0 1 0 0-9.745 4.873 4.873 0 0 0 0 9.745ZM56.74 45.076a4.238 4.238 0 1 0 0-8.475 4.238 4.238 0 0 0 0 8.475Z" fill="#3CB6CE"/><path d="M56.846 29.23a1.844 1.844 0 1 0 0-3.688 1.844 1.844 0 0 0 0 3.687ZM55.032 41.93a1.61 1.61 0 1 0 0-3.221 1.61 1.61 0 0 0 0 3.221ZM67.154 35.512a1.28 1.28 0 1 0 0-2.56 1.28 1.28 0 0 0 0 2.56Z" fill="#1E93AA"/></g><defs><clipPath id="a"><path fill="#fff" transform="translate(12 12)" d="M0 0h66.448v66H0z"/></clipPath></defs></svg>