<svg width="90" height="90" fill="none" xmlns="http://www.w3.org/2000/svg"><path d="M59.344 24.622c-.44-3.419-4.4-3.506-4.576-3.506v-.965c.088 0 4.928.088 5.456 4.295l-.88.175Z" fill="#88A80D"/><path d="m64.008 28.829 2.2 1.577-2.464 1.14-2.464 1.052.264-2.717.352-2.63 2.112 1.578Z" fill="#004953"/><path d="M61.104 28.653a2.723 2.723 0 0 0 2.728-2.717c0-1.5-1.221-2.717-2.728-2.717a2.723 2.723 0 0 0-2.728 2.717c0 1.5 1.221 2.717 2.728 2.717Z" fill="#004953"/><path d="m36.728 22.869-6.688-2.893 14.784-7.538 13.552 7.538-6.688 2.717-14.96.175Z" fill="#2DA5BC"/><path d="M36.288 25.498s8.448-3.068 15.488 0v-5.785s-8.536-2.892-15.488 0v5.785Z" fill="#004953"/><path d="M69.992 53.458c-2.992 3.857-8.624 4.47-12.496 1.49l11-13.936c3.872 2.98 4.488 8.59 1.496 12.446Z" fill="#2DA5BC"/><path d="M46.672 77.737c-.352 0-.704-.35-.704-.701V65.64c0-.35.352-.7.704-.7s.704.35.704.7v11.483c0 .35-.264.613-.704.613ZM43.592 77.737c-.352 0-.704-.35-.704-.701V65.64c0-.35.352-.7.704-.7s.704.35.704.7v11.483c0 .35-.264.613-.704.613Z" fill="#FFB81C"/><path d="M44.912 71.076h-1.936c-10.12 0-18.392-8.152-18.392-18.319v-9.378c0-10.08 8.184-18.32 18.392-18.32h1.936c10.12 0 18.392 8.152 18.392 18.32v9.378c0 10.08-8.272 18.319-18.392 18.319Z" fill="#004953"/><mask id="a" style="mask-type:alpha" maskUnits="userSpaceOnUse" x="24" y="25" width="40" height="47"><path d="M44.912 71.076h-1.936c-10.12 0-18.392-8.152-18.392-18.319v-9.378c0-10.08 8.184-18.32 18.392-18.32h1.936c10.12 0 18.392 8.152 18.392 18.32v9.378c0 10.08-8.272 18.319-18.392 18.319Z" fill="#004953"/></mask><g mask="url(#a)" fill="#017187"><path d="M57.232 50.654c2.024-.702 4.752 1.577 2.024 2.892-1.584.701-4.312-2.104-2.024-2.892ZM61.984 45.22c2.376.262 1.144 3.68-.88 2.629-.88-.439-1.056-1.403-.616-2.016.352-.438.792-.701 1.496-.614ZM54.152 46.27c.176-2.015 3.608-2.278 2.992.089-.44 1.84-3.256 2.015-2.992-.088ZM55.648 41.888c-1.32-2.366 2.728-3.243 2.904-.613 0 .613-.264 1.052-.616 1.227-.704.526-1.848.263-2.288-.614ZM57.232 35.052c2.024-.702 4.752 1.577 2.024 2.892-1.584.789-4.312-2.016-2.024-2.892ZM61.984 29.705c2.376.263 1.144 3.681-.88 2.63-.88-.439-1.056-1.403-.616-2.016.352-.438.792-.701 1.496-.614ZM54.152 30.757c.176-2.016 3.608-2.279 2.992.088-.44 1.84-3.256 2.016-2.992-.088ZM55.648 26.375c-1.32-2.367 2.728-3.244 2.904-.614 0 .614-.264 1.052-.616 1.227-.704.526-1.848.263-2.288-.613ZM57.232 66.167c2.024-.7 4.752 1.578 2.024 2.893-1.584.701-4.312-2.104-2.024-2.893ZM61.984 60.733c2.376.263 1.144 3.681-.88 2.63-.88-.439-1.056-1.403-.616-2.016.352-.439.792-.702 1.496-.614ZM54.152 61.785c.176-2.016 3.608-2.28 2.992.088-.44 1.84-3.256 2.015-2.992-.088ZM55.648 57.49c-1.32-2.366 2.728-3.243 2.904-.613 0 .613-.264 1.051-.616 1.227-.704.438-1.848.175-2.288-.614ZM26.08 50.654c2.024-.702 4.752 1.577 2.024 2.892-1.584.701-4.312-2.104-2.024-2.892ZM30.744 45.22c2.376.262 1.144 3.68-.88 2.629-.88-.439-1.056-1.403-.616-2.016.352-.438.88-.701 1.496-.614ZM22.912 46.27c.176-2.015 3.608-2.278 2.992.089-.44 1.84-3.168 2.015-2.992-.088ZM24.408 41.888c-1.32-2.366 2.728-3.243 2.904-.613 0 .613-.264 1.052-.616 1.227-.616.526-1.76.263-2.288-.614ZM26.08 35.052c2.024-.702 4.752 1.577 2.024 2.892-1.584.789-4.312-2.016-2.024-2.892ZM30.744 29.705c2.376.263 1.144 3.681-.88 2.63-.88-.439-1.056-1.403-.616-2.016.352-.438.88-.701 1.496-.614ZM22.912 30.757c.176-2.016 3.608-2.279 2.992.088-.44 1.84-3.168 2.016-2.992-.088ZM24.408 26.375c-1.32-2.367 2.728-3.244 2.904-.614 0 .614-.264 1.052-.616 1.227-.616.526-1.76.263-2.288-.613ZM51.16 29.442c-.528.789-1.408.877-2.112.526-.88-.35-1.584-1.315-1.408-2.191.264-1.315 1.32-1.49 2.2-1.14 1.144.351 2.112 1.578 1.32 2.805Z"/><path d="M54.152 30.757c.176-2.016 3.608-2.279 2.992.088-.44 1.84-3.256 2.016-2.992-.088ZM51.512 36.279c-1.76.35-3.608-1.84-1.76-3.068.176-.088.264-.175.44-.263 2.2-.964 4.312 2.717 1.32 3.33ZM55.648 26.375c-1.32-2.367 2.728-3.244 2.904-.614 0 .614-.264 1.052-.616 1.227-.704.526-1.848.263-2.288-.613ZM41.656 27.339c2.024-.702 4.752 1.577 2.024 2.892-1.584.789-4.312-2.016-2.024-2.892ZM46.32 21.904c2.376.264 1.144 3.682-.88 2.63-.88-.438-1.056-1.402-.616-2.016.352-.35.88-.614 1.496-.614ZM35.936 28.566c-1.76.35-3.608-1.841-1.76-3.068.176-.088.264-.175.44-.263 2.2-.964 4.312 2.717 1.32 3.33ZM35.584 68.271c-.528.789-1.408.876-2.112.526-.88-.35-1.584-1.315-1.408-2.191.264-1.315 1.32-1.49 2.2-1.14 1.144.35 2.024 1.578 1.32 2.805ZM46.32 68.534c2.376.263 1.144 3.681-.88 2.63-.88-.439-1.056-1.403-.616-2.017.352-.438.88-.7 1.496-.613ZM38.576 69.586c.176-2.016 3.608-2.28 2.992.087-.528 1.753-3.256 1.928-2.992-.087ZM35.936 75.108c-1.76.35-3.608-1.841-1.76-3.068.176-.088.264-.175.44-.263 2.2-.964 4.312 2.717 1.32 3.33ZM40.072 65.203c-1.32-2.366 2.728-3.243 2.904-.613 0 .613-.264 1.052-.616 1.227-.704.438-1.848.263-2.288-.614ZM51.16 60.47c-.528.79-1.408.877-2.112.526-.88-.35-1.584-1.315-1.408-2.191.264-1.315 1.32-1.49 2.2-1.14 1.144.439 2.112 1.578 1.32 2.805ZM54.152 61.785c.176-2.016 3.608-2.28 2.992.088-.44 1.84-3.256 2.015-2.992-.088ZM51.512 67.307c-1.76.35-3.608-1.84-1.76-3.068.176-.088.264-.175.44-.263 2.2-.876 4.312 2.805 1.32 3.33ZM55.648 57.49c-1.32-2.366 2.728-3.243 2.904-.613 0 .613-.264 1.051-.616 1.227-.704.438-1.848.175-2.288-.614ZM41.656 58.367c2.024-.701 4.752 1.577 2.024 2.892-1.584.789-4.312-2.016-2.024-2.892ZM46.32 53.02c2.376.263 1.144 3.681-.88 2.63-.88-.439-1.056-1.403-.616-2.017.352-.438.88-.7 1.496-.613ZM38.576 54.072c.176-2.016 3.608-2.28 2.992.087-.528 1.753-3.256 1.929-2.992-.087ZM35.936 59.594c-1.76.35-3.608-1.84-1.76-3.068.176-.088.264-.175.44-.263 2.2-.964 4.312 2.717 1.32 3.33Z"/></g><path d="M62.336 36.103c-4.664-11.043-16.984-3.505-16.984-3.505s-12.408-7.538-16.984 3.505c-4.664 11.044 2.64 20.423 16.984 20.51 14.344-.087 21.648-9.466 16.984-20.51Z" fill="#87BD40"/><path d="m47.992 45.833-1.32 3.067-1.32-3.067c-.44-.965.264-2.016 1.32-2.016s1.76 1.051 1.32 2.016Z" fill="#004953"/><path d="m22.472 64.677-1.496-7.362c-.792-3.681 1.584-7.275 5.28-8.064l.704-.175c3.696-.79 7.304 1.578 8.096 5.259l.176.7c.792 3.682-1.584 7.276-5.28 8.065l-7.48 1.577Z" fill="#2DA5BC"/><path d="M54.416 49.163c3.79 0 6.864-3.06 6.864-6.836 0-3.776-3.073-6.837-6.864-6.837-3.79 0-6.864 3.06-6.864 6.837 0 3.775 3.073 6.836 6.864 6.836Z" fill="#fff"/><path d="M55.912 45.745a3.425 3.425 0 0 0 3.432-3.418 3.425 3.425 0 0 0-3.432-3.419 3.425 3.425 0 0 0-3.432 3.419 3.425 3.425 0 0 0 3.432 3.418Z" fill="#004953"/><path d="M38.928 49.163c3.79 0 6.864-3.06 6.864-6.836 0-3.776-3.073-6.837-6.864-6.837-3.79 0-6.864 3.06-6.864 6.837 0 3.775 3.073 6.836 6.864 6.836Z" fill="#fff"/><path d="M40.512 45.745a3.425 3.425 0 0 0 3.432-3.418 3.425 3.425 0 0 0-3.432-3.419 3.425 3.425 0 0 0-3.432 3.419 3.425 3.425 0 0 0 3.432 3.418ZM33.12 26.637s-.44-2.19-1.408-3.593c-1.056-1.49-3.52 0-2.64 1.577.44.877 1.584 1.666 4.048 2.016Z" fill="#004953"/><path fill-rule="evenodd" clip-rule="evenodd" d="M55.5 9C49.701 9 45 13.701 45 19.5S49.701 30 55.5 30H61l-4.182 3.485c-.415.346-.062 1.013.458.865L72.5 30h4C82.299 30 87 25.299 87 19.5S82.299 9 76.5 9h-21Z" fill="#ED786A"/><path d="M59.569 15.3V23h-1.463l-3.84-4.675V23h-1.76v-7.7h1.475l3.828 4.675V15.3h1.76Zm7.715 6.27V23h-5.962v-7.7h5.819v1.43h-4.048v1.672h3.575v1.386h-3.575v1.782h4.19Zm12.88-6.27-2.52 7.7H75.73l-1.694-5.214L72.287 23h-1.903l-2.53-7.7h1.848l1.738 5.412 1.815-5.412h1.65l1.76 5.456 1.793-5.456h1.705Z" fill="#fff"/></svg>