<svg xmlns="http://www.w3.org/2000/svg" width="80" height="60"><path fill="#f3aa15" d="M0 0h80v60H0z"/><path d="M59.623 47.411a.943.943 0 0 1-1.304.258l-8.696-5.825a.942.942 0 0 1-.258-1.303l2.931-4.377a.944.944 0 0 1 1.304-.258l8.697 5.824a.944.944 0 0 1 .258 1.304l-2.932 4.377z" fill="#fff"/><path d="M52.217 42.83a1.982 1.982 0 0 1-2.732.546L18.084 22.522a1.963 1.963 0 0 1-.543-2.722l3.282-4.902a1.981 1.981 0 0 1 2.732-.546l31.401 20.854c.9.599 1.146 1.823.543 2.722l-3.282 4.902z" fill="#35a5b6"/><circle cx="31.649" cy="25.011" r="7.414" fill="#fff"/><path d="M32.575 33.509c-4.686.511-8.914-2.886-9.424-7.573-.51-4.686 2.887-8.913 7.572-9.423 4.686-.511 8.914 2.886 9.425 7.572.51 4.686-2.888 8.914-7.573 9.424zm-1.607-14.74a6.287 6.287 0 0 0-5.562 6.923c.375 3.441 3.481 5.938 6.922 5.562a6.286 6.286 0 0 0 5.562-6.923c-.373-3.442-3.479-5.937-6.922-5.562z" fill="#35a5b6"/><g><path d="M31.446 27.16l-.061-.322c-.15-.67-.005-1.436.541-2.256.494-.726.752-1.25.691-1.813-.069-.64-.517-1.023-1.309-.95-.452.049-.938.255-1.225.527l-.388-.756c.382-.347 1.077-.626 1.741-.698 1.441-.158 2.191.662 2.294 1.616.092.852-.317 1.519-.841 2.3-.479.711-.62 1.286-.512 1.922l.046.324-.977.106zm-.086 1.786c-.05-.465.227-.824.667-.872.438-.048.775.244.826.709.048.438-.203.809-.667.859-.439.049-.777-.258-.826-.696z" fill="#c96328"/></g></svg>