<svg width="50" height="50" fill="none" xmlns="http://www.w3.org/2000/svg"><path d="M25 50c13.807 0 25-11.193 25-25S38.807 0 25 0 0 11.193 0 25s11.193 25 25 25Z" fill="#3D689D"/><path d="M10.444 23.667c0-.917 0-1.056-.638-1.473h-.223a.305.305 0 0 1 0-.416 14.896 14.896 0 0 0 2.361-1.278.277.277 0 0 1 .278.167c-.027.36-.027.722 0 1.083 0 .167 0 .305.195.305a7.613 7.613 0 0 1 3.333-1.11 4.027 4.027 0 0 1 3.889 4.222 5.556 5.556 0 0 1-5.75 5.666c-.435.028-.87.028-1.306 0-.222 0-.333.167-.333.667V34c0 1.694 0 1.889.917 2.028h.916a.416.416 0 0 1 0 .583H8.89a.445.445 0 0 1 0-.583h.5c.889 0 .917-.361.917-2.056l.138-10.305Zm1.75 4.388a1.584 1.584 0 0 0 .75 1.445 3.028 3.028 0 0 0 1.695.5c1.944 0 3.083-1.806 3.083-4.278a3.416 3.416 0 0 0-3.194-3.805 2.944 2.944 0 0 0-2.028.638c-.222.278-.278.64-.278 1.417l-.028 4.083Zm9.334-10.833c0-1.305 0-1.444-.695-1.86h-.222a.333.333 0 0 1 0-.445 18.42 18.42 0 0 0 2.444-1.028.167.167 0 0 1 .223 0v7.083c0 .39 0 .472.222.472a4.972 4.972 0 0 1 2.583-.722A4.167 4.167 0 0 1 30.25 25 4.889 4.889 0 0 1 25 30.139a5.555 5.555 0 0 1-1.889-.278 6.226 6.226 0 0 0-.889-.306c-.167 0-.333.195-.472.362a.222.222 0 0 1-.222 0V17.222Zm1.666 9.583c-.058.686.14 1.37.556 1.917a2.111 2.111 0 0 0 1.694.75c2.111 0 2.917-1.778 2.917-3.694 0-1.917-1.167-4.111-3.361-4.111a2.944 2.944 0 0 0-1.528.36c-.222.14-.25.39-.25 1.25l-.028 3.528Zm9.945-9.472c0-1.25 0-1.389-.667-1.777h-.222a.333.333 0 0 1 0-.445 13.631 13.631 0 0 0 2.306-.889.25.25 0 0 1 .222 0V24.25c0 .278 0 .333.36.333a2.14 2.14 0 0 0 1.473-.833l.889-.945c.583-.638.75-.888.75-1 0-.11 0-.166-.472-.222h-.528c-.194 0-.194-.472 0-.527h.5a34.89 34.89 0 0 0 3.417-.167s.166.416 0 .528h-.695c-.506.12-.968.38-1.333.75-.68.556-1.33 1.15-1.945 1.777-.277.25-.277.334-.166.528.11.195.944 1.167 1.444 1.722.5.556 1.584 1.778 2 2.167.32.275.719.44 1.14.472h.277c.166 0 0 .473 0 .528H37.61a.361.361 0 0 1 0-.5H38c.333 0 .528 0 .528-.222s0-.278-.361-.611l-2.306-2.64a.89.89 0 0 0-.667-.305c-.389 0-.416 0-.416.723v1.166c0 1.556 0 1.778.833 1.89h.5a.36.36 0 0 1 0 .527h-4.139a.332.332 0 0 1 0-.5h.472c.778 0 .806-.334.806-1.889l-.111-9.667Z" fill="#fff"/></svg>