<svg xmlns="http://www.w3.org/2000/svg" viewBox="0 0 18 18"><circle cx="9" cy="9" r="9" fill="#1a75cf"/><path d="M9 7.19a.48.48 0 00.5-.31L9.75 4c0-.28-.33-.52-.75-.52s-.75.24-.75.52l.25 2.88a.48.48 0 00.5.31m-1.56.9a.47.47 0 000-.59L5.05 5.84c-.25-.14-.62 0-.83.39a.69.69 0 00.07.92l2.63 1.22a.48.48 0 00.52-.28m3.12 0a.48.48 0 00.52.28l2.63-1.22c.25-.15.28-.55.07-.92s-.58-.53-.78-.39L10.58 7.5a.47.47 0 000 .59M9 10.8a.47.47 0 01.5.31L9.75 14c0 .29-.33.52-.75.52s-.75-.23-.75-.52l.25-2.88a.47.47 0 01.5-.32m1.56-.9c.13-.23.35-.35.52-.28l2.63 1.22c.25.14.28.55.07.91s-.58.54-.83.4l-2.37-1.67a.47.47 0 010-.59m-3.12 0a.46.46 0 010 .58l-2.41 1.68c-.25.14-.62 0-.83-.4a.67.67 0 01.07-.91l2.63-1.22a.47.47 0 01.52.28" fill="#fdbb30"/></svg>