<svg width="50" height="50" fill="none" xmlns="http://www.w3.org/2000/svg"><path d="M25 50c13.807 0 25-11.193 25-25S38.807 0 25 0 0 11.193 0 25s11.193 25 25 25Z" fill="#ABB29B"/><path d="M16.278 16.861a3.666 3.666 0 0 0-3.583-2.972 3.612 3.612 0 0 0-3.612 3.75 3.695 3.695 0 0 0 3.611 3.639 3.889 3.889 0 0 0 3.5-2.39h2.084a5.778 5.778 0 1 1 0-2.027h-2Zm6.667 0a1.97 1.97 0 0 0-2 2v4.333h-2.056v-7.972h1.944v.833a2.471 2.471 0 0 1 1.917-1h.5v1.723h-.305v.083Zm5.694 6.278a6.047 6.047 0 0 1 0-.695 3.472 3.472 0 0 1-2.444.917 2.778 2.778 0 0 1-2.917-2.472c0-1.584 1.444-2.306 2.778-2.584 1.333-.277 2.389 0 2.389-.944s-.695-1-1.417-1a1.722 1.722 0 0 0-1.111.361 1.278 1.278 0 0 0-.417.806h-1.833a2.39 2.39 0 0 1 1.055-1.972 3.972 3.972 0 0 1 2.223-.584c2.166 0 3.472.89 3.472 2.778v3.861a3.055 3.055 0 0 0 .305 1.583l-2.083-.055Zm-.194-4.111c-.37.188-.762.328-1.167.416a4.833 4.833 0 0 0-1.64.556 1.083 1.083 0 0 0-.444.833c0 .167 0 .973 1.362.973a2.166 2.166 0 0 0 1.5-.528 1.971 1.971 0 0 0 .389-1.473v-.777Zm5.333 4.11a1.75 1.75 0 0 1-1.972-1.944v-4.527h-1.25v-1.39h1.083V12.5h2.028v2.778h1.472v1.389h-1.472v3.944c0 .75.222 1.028.916 1.028h.611v1.555h-1.527l.11-.055Zm3.444-3.388a1.89 1.89 0 0 0 1.917 1.805 1.722 1.722 0 0 0 1.611-1h2.111a3.583 3.583 0 0 1-3.666 2.778 4.084 4.084 0 0 1-4.14-4.277 4 4 0 0 1 3.834-4.084c2.5 0 3.972 2.056 3.972 4.778h-5.639Zm1.667-3.083a1.695 1.695 0 0 0-1.75 1.666h3.444a1.61 1.61 0 0 0-1.694-1.666Zm-21.861 9.527h2.083v5.89l2.611-2.834h2.445l-2.861 2.889 3.166 5.028h-2.5l-2.055-3.528-.806.805v2.723h-2.083V26.194ZM26.917 28H25v-1.778h2.056L26.916 28ZM25 29.25h2.056v7.944H25V29.25Zm8.528 6.861a2.779 2.779 0 0 1-2.39 1.222c-2.36 0-3.527-2.055-3.527-4.25a3.668 3.668 0 0 1 3.472-4.11 2.776 2.776 0 0 1 2.334 1.166v-3.945H35.5v11.112h-1.972V36.11Zm-1.861-5.555c-1.417 0-2 1.222-2 2.527 0 1.306.666 2.556 2 2.556 1.333 0 1.833-1.25 1.833-2.556 0-1.305-.444-2.527-1.833-2.527Zm6.277 4.027c0 .973.778 1.361 1.612 1.361.833 0 1.333-.25 1.333-1.027 0-.778-.861-.89-2.333-1.223-1.473-.333-2.417-.722-2.417-2.11 0-2.029 1.694-2.556 3.305-2.556 1.612 0 3.167.583 3.334 2.527h-2c0-.833-.667-1.055-1.39-1.055-.721 0-1.166 0-1.166.722s1.167.89 2.334 1.195c1.166.305 2.416.75 2.416 2.222 0 2.083-1.722 2.778-3.444 2.778s-3.472-.667-3.556-2.778h1.972v-.056Zm-23.194.25c.68-.95 1.1-2.06 1.222-3.222h-1.777l-.584 1.722-1.389-1.805a3.305 3.305 0 0 0 1.806-2.778 2.778 2.778 0 0 0-2.778-2.639 2.778 2.778 0 0 0-2.778 2.472 4.139 4.139 0 0 0 1.167 2.445 3.973 3.973 0 0 0-2.611 3.444 3.138 3.138 0 0 0 3.305 2.972 4.917 4.917 0 0 0 3.167-1.222l.778.972h2.389l-1.917-2.36Zm-3.5-7.055a1 1 0 0 1 1 .944c0 .556-.556 1.056-1.056 1.472-.444-.583-.888-1.055-.888-1.583a.972.972 0 0 1 .944-.833Zm-.972 7.916a1.25 1.25 0 0 1-1.222-1.277c.063-.431.292-.82.638-1.084l.973-.694 1.722 2.305a3.556 3.556 0 0 1-2.111.75Z" fill="#fff"/></svg>