<svg width="40" height="40" fill="none" xmlns="http://www.w3.org/2000/svg"><circle cx="20" cy="20" r="20" fill="#87BD40"/><path d="M24 9v7h3.75v14h1.5V16H33V9h-9Zm5.01 6v-1.75H25.5v-1.5h3.51V10l2.49 2.5-2.49 2.5ZM18.31 23.292c.594 0 1.117-.325 1.386-.816l2.834-5.138a.789.789 0 0 0-.689-1.171H10.125l-.745-1.584H6.792v1.584h1.583l2.85 6.008-1.069 1.932c-.578 1.06.182 2.351 1.386 2.351h9.5v-1.583h-9.5l.87-1.583h5.898Zm-7.433-5.542h9.618l-2.185 3.958h-5.557l-1.876-3.958Zm.665 9.5c-.871 0-1.576.712-1.576 1.583s.705 1.584 1.576 1.584c.87 0 1.583-.713 1.583-1.584 0-.87-.713-1.583-1.583-1.583Zm7.916 0c-.87 0-1.575.712-1.575 1.583s.704 1.584 1.575 1.584 1.584-.713 1.584-1.584c0-.87-.713-1.583-1.584-1.583Z" fill="#fff"/></svg>