<svg width="40" height="40" fill="none" xmlns="http://www.w3.org/2000/svg"><circle cx="20" cy="20" r="20" fill="#87BD40"/><path d="M27 11H13a2 2 0 0 0-2 2v14a2 2 0 0 0 2 2h4l3 3 3-3h4c1.1 0 2-.9 2-2V13c0-1.1-.9-2-2-2Zm0 16h-4.83l-.59.59L20 29.17l-1.59-1.59-.58-.58H13V13h14v14Zm-7-7c1.65 0 3-1.35 3-3s-1.35-3-3-3-3 1.35-3 3 1.35 3 3 3Zm0-4c.55 0 1 .45 1 1s-.45 1-1 1-1-.45-1-1 .45-1 1-1Zm6 8.58c0-2.5-3.97-3.58-6-3.58s-6 1.08-6 3.58V26h12v-1.42ZM16.48 24c.74-.51 2.23-1 3.52-1s2.78.49 3.52 1h-7.04Z" fill="#fff"/></svg>