<svg width="49" height="50" fill="none" xmlns="http://www.w3.org/2000/svg"><mask id="a" style="mask-type:alpha" maskUnits="userSpaceOnUse" x="13" y="11" width="15" height="15"><path fill-rule="evenodd" clip-rule="evenodd" d="M13.765 18.628a6.87 6.87 0 0 0 6.863 6.862 6.87 6.87 0 0 0 6.862-6.862 6.87 6.87 0 0 0-6.862-6.863 6.87 6.87 0 0 0-6.863 6.863Zm3.431 0a3.435 3.435 0 0 1 3.431-3.432 3.435 3.435 0 0 1 3.432 3.432 3.435 3.435 0 0 1-3.431 3.43 3.435 3.435 0 0 1-3.432-3.43Z" fill="#fff"/></mask><g mask="url(#a)"><path fill-rule="evenodd" clip-rule="evenodd" d="M11.477 27.206h17.729V9.477H11.477v17.729Z" fill="#EBF7FA"/></g><mask id="b" style="mask-type:alpha" maskUnits="userSpaceOnUse" x="38" y="0" width="5" height="6"><path fill-rule="evenodd" clip-rule="evenodd" d="M39.306.98a1.045 1.045 0 0 0-1.031 1.031v.034c.004.263.106.524.306.725l1.94 1.94a1.046 1.046 0 0 0 1.483 0 1.045 1.045 0 0 0 0-1.482l-1.94-1.94c-.2-.201-.461-.304-.724-.308h-.034Z" fill="#fff"/></mask><g mask="url(#b)"><path fill-rule="evenodd" clip-rule="evenodd" d="M37.013 6.279h6.56v-6.56h-6.56v6.56Z" fill="#EBF7FA"/></g><mask id="c" style="mask-type:alpha" maskUnits="userSpaceOnUse" x="44" y="0" width="5" height="6"><path fill-rule="evenodd" clip-rule="evenodd" d="M47.013.98a1.043 1.043 0 0 0-.724.307l-1.94 1.941a1.045 1.045 0 0 0 0 1.482 1.046 1.046 0 0 0 1.482 0l1.94-1.94c.2-.2.303-.462.307-.724v-.034a1.043 1.043 0 0 0-.307-.725c-.2-.2-.461-.303-.724-.307h-.034Z" fill="#fff"/></mask><g mask="url(#c)"><path fill-rule="evenodd" clip-rule="evenodd" d="M42.78 6.279h6.56v-6.56h-6.56v6.56Z" fill="#EBF7FA"/></g><mask id="d" style="mask-type:alpha" maskUnits="userSpaceOnUse" x="38" y="6" width="5" height="5"><path fill-rule="evenodd" clip-rule="evenodd" d="m40.522 7.055-1.94 1.94c-.2.2-.303.461-.307.724v.034a1.045 1.045 0 0 0 1.048 1.031c.268 0 .536-.102.74-.307l1.941-1.94a1.044 1.044 0 0 0 0-1.482 1.046 1.046 0 0 0-1.482 0Z" fill="#fff"/></mask><g mask="url(#d)"><path fill-rule="evenodd" clip-rule="evenodd" d="M37.013 12.046h6.56v-6.56h-6.56v6.56Z" fill="#EBF7FA"/></g><mask id="e" style="mask-type:alpha" maskUnits="userSpaceOnUse" x="44" y="6" width="5" height="5"><path fill-rule="evenodd" clip-rule="evenodd" d="M44.348 7.055a1.046 1.046 0 0 0 0 1.482l1.941 1.94a1.044 1.044 0 0 0 1.482 0c.2-.2.303-.461.307-.724v-.034a1.042 1.042 0 0 0-.307-.724l-1.94-1.94a1.044 1.044 0 0 0-1.483 0Z" fill="#fff"/></mask><g mask="url(#e)"><path fill-rule="evenodd" clip-rule="evenodd" d="M42.78 12.046h6.56v-6.56h-6.56v6.56Z" fill="#EBF7FA"/></g><mask id="f" style="mask-type:alpha" maskUnits="userSpaceOnUse" x="31" y="11" width="12" height="12"><path fill-rule="evenodd" clip-rule="evenodd" d="M36.742 11.765a.336.336 0 0 0-.31.214c-.302.786-.871 1.942-1.872 2.991-.979 1.03-2.121 1.586-2.927 1.874a.331.331 0 0 0-.007.623c.874.335 2.116.928 2.934 1.812.853.925 1.48 2.216 1.835 3.064a.334.334 0 0 0 .623-.011c.327-.872.94-2.194 1.88-3.053.933-.852 2.238-1.477 3.09-1.827a.332.332 0 0 0-.007-.618c-.856-.327-2.16-.935-3.083-1.864-.9-.902-1.505-2.15-1.843-2.995a.335.335 0 0 0-.31-.21h-.003Z" fill="#fff"/></mask><g mask="url(#f)"><path fill-rule="evenodd" clip-rule="evenodd" d="M29.709 24.252h13.622V10.63H29.71v13.622Z" fill="#FED751"/></g><mask id="g" style="mask-type:alpha" maskUnits="userSpaceOnUse" x="23" y="0" width="12" height="11"><path fill-rule="evenodd" clip-rule="evenodd" d="M28.898 0a.336.336 0 0 0-.31.214c-.302.786-.87 1.943-1.871 2.991-.979 1.03-2.121 1.586-2.927 1.874a.332.332 0 0 0-.007.624c.874.335 2.115.927 2.934 1.811.853.925 1.48 2.216 1.835 3.064a.334.334 0 0 0 .622-.01c.328-.872.94-2.195 1.881-3.054.933-.851 2.238-1.477 3.09-1.827a.332.332 0 0 0-.007-.618c-.856-.327-2.161-.935-3.083-1.864-.9-.902-1.505-2.149-1.843-2.994a.335.335 0 0 0-.31-.211h-.004Z" fill="#fff"/></mask><g mask="url(#g)"><path fill-rule="evenodd" clip-rule="evenodd" d="M21.866 12.487h13.622V-1.135H21.866v13.622Z" fill="#FED751"/></g><path fill-rule="evenodd" clip-rule="evenodd" d="M34.151 42.09a3.952 3.952 0 0 0-3.948 3.955A3.952 3.952 0 0 0 34.151 50c2.181 0 3.949-1.77 3.949-3.955a3.951 3.951 0 0 0-3.949-3.955Zm0 2.275a1.68 1.68 0 0 1 0 3.36 1.68 1.68 0 0 1 0-3.36ZM21.178 42.09a3.951 3.951 0 0 0-3.948 3.955A3.951 3.951 0 0 0 21.178 50c2.18 0 3.948-1.77 3.948-3.955a3.952 3.952 0 0 0-3.948-3.955Zm0 2.275a1.68 1.68 0 0 1 0 3.36 1.68 1.68 0 0 1 0-3.36Z" fill="#004953"/><path d="M37.536 41.525H17.399l-6.58-24.858H2" stroke="#004953" stroke-width="3" stroke-linecap="round" stroke-linejoin="round"/><path d="M13.281 21.751h29.895L39.34 34.746H16.062M22.306 22.881l1.692 10.735M31.895 21.751l-1.128 11.865M14.41 28.249h25.382" stroke="#004953" stroke-width="3" stroke-linecap="round" stroke-linejoin="round"/></svg>