<svg width="72" height="120" fill="none" xmlns="http://www.w3.org/2000/svg"><mask id="a" style="mask-type:alpha" maskUnits="userSpaceOnUse" x="4" y="39" width="65" height="81"><path fill-rule="evenodd" clip-rule="evenodd" d="M9.03 39.117c-2.778 0-5.03 2.628-5.03 5.87v69.143c0 3.242 2.252 5.87 5.03 5.87h54.933c2.778 0 5.03-2.628 5.03-5.87V44.987c0-3.242-2.252-5.87-5.03-5.87H9.03Z" fill="#fff"/></mask><g mask="url(#a)"><path fill-rule="evenodd" clip-rule="evenodd" d="M2.16 122.47h69.285V36.648H2.161v85.822Z" fill="#336053"/></g><mask id="b" style="mask-type:alpha" maskUnits="userSpaceOnUse" x="8" y="44" width="58" height="71"><path fill-rule="evenodd" clip-rule="evenodd" d="M12.215 44.336c-2.143 0-3.882 1.987-3.882 4.44v61.566c0 2.452 1.739 4.44 3.882 4.44h49.43c2.143 0 3.882-1.988 3.882-4.44V48.775c0-2.452-1.739-4.44-3.883-4.44H12.215Z" fill="#fff"/></mask><g mask="url(#b)" fill-rule="evenodd" clip-rule="evenodd" fill="#fff"><path d="M6.488 118.457h61.499V41.885h-61.5v76.572Z"/><path d="M6.488 118.457h61.499V41.885h-61.5v76.572Z"/></g><mask id="c" style="mask-type:alpha" maskUnits="userSpaceOnUse" x="33" y="28" width="7" height="7"><path fill-rule="evenodd" clip-rule="evenodd" d="M33.463 31.725a3.039 3.039 0 0 0 3.033 3.044 3.039 3.039 0 0 0 3.033-3.044 3.039 3.039 0 0 0-3.033-3.044 3.039 3.039 0 0 0-3.033 3.044Z" fill="#fff"/></mask><g mask="url(#c)"><path fill-rule="evenodd" clip-rule="evenodd" d="M31.297 36.943h10.399V26.507H31.297v10.436Z" fill="#fff"/></g><path d="m17.865 66.575 3.863 4.721 9.136-8.697M17.865 81.36l3.863 4.721 9.136-8.697M17.865 97.885l3.863 4.721 9.136-8.697" stroke="#3CB6CE" stroke-linecap="round" stroke-linejoin="round"/><path d="M36.93 98.692h20.797M36.93 65.643h20.797M36.93 83.907h20.797" stroke="#ADAEA5" stroke-width="2" stroke-linecap="round" stroke-linejoin="round"/><g stroke="#FFC649" stroke-width="4" stroke-linecap="round" stroke-linejoin="round"><path d="m53.463 18.785 6.075-6.088M36.108 10.958V4M17.884 18.785l-6.074-6.088M4 34.005h6.942M60.405 34.005h6.942"/></g><g><path fill-rule="evenodd" clip-rule="evenodd" d="m37.395 18.282 4.234 8.97c.279.593.82 1.004 1.445 1.1l9.465 1.438c1.574.239 2.203 2.263 1.064 3.425l-6.849 6.981a2.065 2.065 0 0 0-.552 1.778l1.617 9.859c.268 1.64-1.377 2.89-2.786 2.116l-8.466-4.654a1.844 1.844 0 0 0-1.786 0l-8.466 4.654c-1.408.775-3.055-.476-2.786-2.116l1.617-9.86a2.068 2.068 0 0 0-.552-1.777l-6.849-6.981c-1.14-1.162-.51-3.187 1.063-3.425l9.466-1.439a1.93 1.93 0 0 0 1.446-1.099l4.232-8.97a1.884 1.884 0 0 1 3.443 0Z" fill="#FFC649"/></g></svg>