<svg width="90" height="90" fill="none" xmlns="http://www.w3.org/2000/svg"><path d="M14.828 12.49h53.04a6.277 6.277 0 0 1 6.276 6.277v53.356H14.827V12.491Z" fill="#ECEDEB"/><mask id="a" style="mask-type:alpha" maskUnits="userSpaceOnUse" x="14" y="12" width="61" height="61"><path d="M14.828 12.49h53.04a6.277 6.277 0 0 1 6.276 6.277v53.356H14.827V12.491Z" fill="#ECEDEB"/></mask><g mask="url(#a)" fill="#E0E1DD"><path d="M74.551 14.807a.968.968 0 1 0 0-1.937.968.968 0 0 0 0 1.937ZM74.44 17.685a.968.968 0 1 0 0-1.937.968.968 0 0 0 0 1.937ZM74.551 20.241a.968.968 0 1 0 0-1.937.968.968 0 0 0 0 1.937ZM74.44 23.119a.968.968 0 1 0 0-1.937.968.968 0 0 0 0 1.937ZM74.551 25.673a.969.969 0 1 0 0-1.937.969.969 0 0 0 0 1.937ZM74.44 28.55a.968.968 0 1 0 0-1.936.968.968 0 0 0 0 1.936ZM74.551 31.105a.968.968 0 1 0 0-1.937.968.968 0 0 0 0 1.937ZM74.44 33.985a.968.968 0 1 0 0-1.937.968.968 0 0 0 0 1.937ZM74.551 36.539a.968.968 0 1 0 0-1.937.968.968 0 0 0 0 1.937ZM74.44 39.416a.968.968 0 1 0 0-1.936.968.968 0 0 0 0 1.937ZM74.551 41.97a.968.968 0 1 0 0-1.936.968.968 0 0 0 0 1.937ZM74.44 44.848a.968.968 0 1 0 0-1.937.968.968 0 0 0 0 1.937ZM74.551 47.405a.968.968 0 1 0 0-1.937.968.968 0 0 0 0 1.937ZM74.44 50.283a.968.968 0 1 0 0-1.937.968.968 0 0 0 0 1.937ZM74.551 52.837a.968.968 0 1 0 0-1.937.968.968 0 0 0 0 1.937ZM74.44 55.714a.968.968 0 1 0 0-1.937.968.968 0 0 0 0 1.937ZM74.551 58.27a.969.969 0 1 0 0-1.936.969.969 0 0 0 0 1.937ZM74.44 61.149a.968.968 0 1 0 0-1.937.968.968 0 0 0 0 1.937ZM74.551 63.703a.968.968 0 1 0 0-1.937.968.968 0 0 0 0 1.937ZM74.44 66.58a.968.968 0 1 0 0-1.937.968.968 0 0 0 0 1.937ZM74.551 69.134a.968.968 0 1 0 0-1.937.968.968 0 0 0 0 1.937ZM74.44 72.015a.968.968 0 1 0 0-1.937.968.968 0 0 0 0 1.937ZM66.462 14.807a.968.968 0 1 0 0-1.937.968.968 0 0 0 0 1.937ZM69.296 14.86a.968.968 0 1 0 0-1.937.968.968 0 0 0 0 1.937ZM69.049 17.533a.969.969 0 1 0 0-1.937.969.969 0 0 0 0 1.937ZM71.843 17.619a.968.968 0 1 0 0-1.937.968.968 0 0 0 0 1.937ZM66.353 17.685a.968.968 0 1 0 0-1.937.968.968 0 0 0 0 1.937ZM71.967 14.605a.968.968 0 1 0 0-1.937.968.968 0 0 0 0 1.937ZM66.462 20.241a.968.968 0 1 0 0-1.937.968.968 0 0 0 0 1.937ZM69.296 20.292a.968.968 0 1 0 0-1.937.968.968 0 0 0 0 1.937ZM69.049 22.967a.968.968 0 1 0 0-1.937.968.968 0 0 0 0 1.937ZM71.843 23.05a.968.968 0 1 0 0-1.936.968.968 0 0 0 0 1.936ZM66.353 23.119a.968.968 0 1 0 0-1.937.968.968 0 0 0 0 1.937ZM71.967 20.036a.968.968 0 1 0 0-1.937.968.968 0 0 0 0 1.937ZM66.462 25.673a.969.969 0 1 0 0-1.937.969.969 0 0 0 0 1.937ZM69.296 25.726a.968.968 0 1 0 0-1.937.968.968 0 0 0 0 1.937ZM69.049 28.399a.968.968 0 1 0 0-1.937.968.968 0 0 0 0 1.937ZM71.843 28.485a.969.969 0 1 0 0-1.937.969.969 0 0 0 0 1.937ZM66.353 28.55a.968.968 0 1 0 0-1.936.968.968 0 0 0 0 1.936ZM71.967 25.468a.968.968 0 1 0 0-1.937.968.968 0 0 0 0 1.937ZM66.462 31.105a.968.968 0 1 0 0-1.937.968.968 0 0 0 0 1.937ZM69.296 31.158a.968.968 0 1 0 0-1.937.968.968 0 0 0 0 1.937ZM69.049 33.833a.969.969 0 1 0 0-1.937.969.969 0 0 0 0 1.937ZM71.843 33.916a.968.968 0 1 0 0-1.936.968.968 0 0 0 0 1.936ZM66.353 33.985a.968.968 0 1 0 0-1.937.968.968 0 0 0 0 1.937ZM71.967 30.902a.968.968 0 1 0 0-1.937.968.968 0 0 0 0 1.937ZM66.462 36.539a.968.968 0 1 0 0-1.937.968.968 0 0 0 0 1.937ZM69.296 36.59a.968.968 0 1 0 0-1.937.968.968 0 0 0 0 1.937ZM69.049 39.265a.968.968 0 1 0 0-1.937.968.968 0 0 0 0 1.937ZM71.843 39.348a.968.968 0 1 0 0-1.937.968.968 0 0 0 0 1.937ZM66.353 39.416a.968.968 0 1 0 0-1.936.968.968 0 0 0 0 1.937ZM71.967 36.334a.968.968 0 1 0 0-1.937.968.968 0 0 0 0 1.937ZM66.462 41.97a.968.968 0 1 0 0-1.936.968.968 0 0 0 0 1.937ZM69.296 42.024a.968.968 0 1 0 0-1.937.968.968 0 0 0 0 1.937ZM69.049 44.697a.968.968 0 1 0 0-1.937.968.968 0 0 0 0 1.937ZM71.843 44.782a.968.968 0 1 0 0-1.936.968.968 0 0 0 0 1.937ZM66.353 44.848a.968.968 0 1 0 0-1.937.968.968 0 0 0 0 1.937ZM71.967 41.768a.968.968 0 1 0 0-1.937.968.968 0 0 0 0 1.937ZM66.462 47.405a.968.968 0 1 0 0-1.937.968.968 0 0 0 0 1.937ZM69.296 47.456a.968.968 0 1 0 0-1.937.968.968 0 0 0 0 1.937ZM69.049 50.13a.969.969 0 1 0 0-1.936.969.969 0 0 0 0 1.937ZM71.843 50.214a.969.969 0 1 0 0-1.937.969.969 0 0 0 0 1.937ZM66.353 50.283a.968.968 0 1 0 0-1.937.968.968 0 0 0 0 1.937ZM71.967 47.2a.969.969 0 1 0 0-1.937.969.969 0 0 0 0 1.937ZM66.462 52.837a.968.968 0 1 0 0-1.937.968.968 0 0 0 0 1.937ZM69.296 52.89a.968.968 0 1 0 0-1.937.968.968 0 0 0 0 1.937ZM69.049 55.563a.968.968 0 1 0 0-1.937.968.968 0 0 0 0 1.937ZM71.843 55.649a.968.968 0 1 0 0-1.937.968.968 0 0 0 0 1.937ZM66.353 55.714a.968.968 0 1 0 0-1.937.968.968 0 0 0 0 1.937ZM71.967 52.634a.968.968 0 1 0 0-1.937.968.968 0 0 0 0 1.937ZM66.462 58.27a.969.969 0 1 0 0-1.936.969.969 0 0 0 0 1.937ZM69.296 58.322a.968.968 0 1 0 0-1.937.968.968 0 0 0 0 1.937ZM69.049 60.997a.968.968 0 1 0 0-1.937.968.968 0 0 0 0 1.937ZM71.843 61.08a.968.968 0 1 0 0-1.937.968.968 0 0 0 0 1.937ZM66.353 61.149a.968.968 0 1 0 0-1.937.968.968 0 0 0 0 1.937ZM71.967 58.066a.968.968 0 1 0 0-1.937.968.968 0 0 0 0 1.937ZM66.462 63.703a.968.968 0 1 0 0-1.937.968.968 0 0 0 0 1.937ZM69.296 63.756a.968.968 0 1 0 0-1.937.968.968 0 0 0 0 1.937ZM69.049 66.428a.968.968 0 1 0 0-1.936.968.968 0 0 0 0 1.936ZM71.843 66.515a.968.968 0 1 0 0-1.937.968.968 0 0 0 0 1.937ZM66.353 66.58a.968.968 0 1 0 0-1.937.968.968 0 0 0 0 1.937ZM71.967 63.498a.968.968 0 1 0 0-1.937.968.968 0 0 0 0 1.937ZM66.462 69.134a.968.968 0 1 0 0-1.937.968.968 0 0 0 0 1.937ZM69.296 69.188a.968.968 0 1 0 0-1.937.968.968 0 0 0 0 1.936ZM69.049 71.863a.968.968 0 1 0 0-1.937.968.968 0 0 0 0 1.937ZM71.843 71.946a.968.968 0 1 0 0-1.937.968.968 0 0 0 0 1.937ZM66.353 72.015a.968.968 0 1 0 0-1.937.968.968 0 0 0 0 1.937ZM71.967 68.932a.968.968 0 1 0 0-1.937.968.968 0 0 0 0 1.937ZM58.372 14.807a.968.968 0 1 0 0-1.937.968.968 0 0 0 0 1.937ZM61.207 14.86a.968.968 0 1 0 0-1.937.968.968 0 0 0 0 1.937ZM60.96 17.533a.969.969 0 1 0 0-1.937.969.969 0 0 0 0 1.937ZM63.753 17.619a.968.968 0 1 0 0-1.937.968.968 0 0 0 0 1.937ZM58.264 17.685a.969.969 0 1 0 0-1.937.969.969 0 0 0 0 1.937ZM63.88 14.605a.968.968 0 1 0 0-1.937.968.968 0 0 0 0 1.937ZM58.372 20.241a.968.968 0 1 0 0-1.937.968.968 0 0 0 0 1.937ZM61.207 20.292a.968.968 0 1 0 0-1.937.968.968 0 0 0 0 1.937ZM60.96 22.967a.968.968 0 1 0 0-1.937.968.968 0 0 0 0 1.937ZM63.753 23.05a.968.968 0 1 0 0-1.936.968.968 0 0 0 0 1.936ZM58.264 23.119a.969.969 0 1 0 0-1.937.969.969 0 0 0 0 1.937ZM63.88 20.036a.968.968 0 1 0 0-1.937.968.968 0 0 0 0 1.937ZM58.372 25.673a.969.969 0 1 0 0-1.937.969.969 0 0 0 0 1.937ZM61.207 25.726a.968.968 0 1 0 0-1.937.968.968 0 0 0 0 1.937ZM60.96 28.399a.968.968 0 1 0 0-1.937.968.968 0 0 0 0 1.937ZM63.753 28.485a.969.969 0 1 0 0-1.937.969.969 0 0 0 0 1.937ZM58.264 28.55a.969.969 0 1 0 0-1.937.969.969 0 0 0 0 1.938ZM63.88 25.468a.968.968 0 1 0 0-1.937.968.968 0 0 0 0 1.937ZM58.372 31.105a.968.968 0 1 0 0-1.937.968.968 0 0 0 0 1.937ZM61.207 31.158a.968.968 0 1 0 0-1.937.968.968 0 0 0 0 1.937ZM60.96 33.833a.969.969 0 1 0 0-1.937.969.969 0 0 0 0 1.937ZM63.753 33.916a.968.968 0 1 0 0-1.936.968.968 0 0 0 0 1.936ZM58.264 33.985a.969.969 0 1 0 0-1.937.969.969 0 0 0 0 1.937ZM63.88 30.902a.968.968 0 1 0 0-1.937.968.968 0 0 0 0 1.937ZM58.372 36.539a.968.968 0 1 0 0-1.937.968.968 0 0 0 0 1.937ZM61.207 36.59a.968.968 0 1 0 0-1.937.968.968 0 0 0 0 1.937ZM60.96 39.265a.968.968 0 1 0 0-1.937.968.968 0 0 0 0 1.937ZM63.753 39.348a.968.968 0 1 0 0-1.937.968.968 0 0 0 0 1.937ZM58.264 39.416a.969.969 0 1 0 0-1.937.969.969 0 0 0 0 1.938ZM63.88 36.334a.968.968 0 1 0 0-1.937.968.968 0 0 0 0 1.937ZM58.372 41.97a.968.968 0 1 0 0-1.936.968.968 0 0 0 0 1.937ZM61.207 42.024a.968.968 0 1 0 0-1.937.968.968 0 0 0 0 1.937ZM60.96 44.697a.968.968 0 1 0 0-1.937.968.968 0 0 0 0 1.937ZM63.753 44.782a.968.968 0 1 0 0-1.936.968.968 0 0 0 0 1.937ZM58.264 44.848a.969.969 0 1 0 0-1.937.969.969 0 0 0 0 1.937ZM63.88 41.768a.968.968 0 1 0 0-1.937.968.968 0 0 0 0 1.937ZM58.372 47.405a.968.968 0 1 0 0-1.937.968.968 0 0 0 0 1.937ZM61.207 47.456a.968.968 0 1 0 0-1.937.968.968 0 0 0 0 1.937ZM60.96 50.13a.969.969 0 1 0 0-1.936.969.969 0 0 0 0 1.937ZM63.753 50.214a.969.969 0 1 0 0-1.937.969.969 0 0 0 0 1.937ZM58.264 50.283a.969.969 0 1 0 0-1.937.969.969 0 0 0 0 1.937ZM63.88 47.2a.969.969 0 1 0 0-1.937.969.969 0 0 0 0 1.937ZM58.372 52.837a.968.968 0 1 0 0-1.937.968.968 0 0 0 0 1.937ZM61.207 52.89a.968.968 0 1 0 0-1.937.968.968 0 0 0 0 1.937ZM60.96 55.563a.968.968 0 1 0 0-1.937.968.968 0 0 0 0 1.937ZM63.753 55.649a.968.968 0 1 0 0-1.937.968.968 0 0 0 0 1.937ZM58.264 55.714a.969.969 0 1 0 0-1.937.969.969 0 0 0 0 1.937ZM63.88 52.634a.968.968 0 1 0 0-1.937.968.968 0 0 0 0 1.937ZM58.372 58.27a.969.969 0 1 0 0-1.936.969.969 0 0 0 0 1.937ZM61.207 58.322a.968.968 0 1 0 0-1.937.968.968 0 0 0 0 1.937ZM60.96 60.997a.968.968 0 1 0 0-1.937.968.968 0 0 0 0 1.937ZM63.753 61.08a.968.968 0 1 0 0-1.937.968.968 0 0 0 0 1.937ZM58.264 61.149a.969.969 0 1 0 0-1.937.969.969 0 0 0 0 1.937ZM63.88 58.066a.968.968 0 1 0 0-1.937.968.968 0 0 0 0 1.937ZM58.372 63.703a.968.968 0 1 0 0-1.937.968.968 0 0 0 0 1.937ZM61.207 63.756a.968.968 0 1 0 0-1.937.968.968 0 0 0 0 1.937ZM60.96 66.428a.968.968 0 1 0 0-1.936.968.968 0 0 0 0 1.936ZM63.753 66.515a.968.968 0 1 0 0-1.937.968.968 0 0 0 0 1.937ZM58.264 66.58a.969.969 0 1 0 0-1.937.969.969 0 0 0 0 1.937ZM63.88 63.498a.968.968 0 1 0 0-1.937.968.968 0 0 0 0 1.937ZM58.372 69.134a.968.968 0 1 0 0-1.937.968.968 0 0 0 0 1.937ZM61.207 69.188a.968.968 0 1 0 0-1.937.968.968 0 0 0 0 1.936ZM60.96 71.863a.968.968 0 1 0 0-1.937.968.968 0 0 0 0 1.937ZM63.753 71.946a.968.968 0 1 0 0-1.937.968.968 0 0 0 0 1.937ZM58.264 72.015a.969.969 0 1 0 0-1.937.969.969 0 0 0 0 1.937ZM63.88 68.932a.968.968 0 1 0 0-1.937.968.968 0 0 0 0 1.937ZM50.283 14.807a.969.969 0 1 0 0-1.937.969.969 0 0 0 0 1.937ZM53.118 14.86a.969.969 0 1 0 0-1.937.969.969 0 0 0 0 1.937ZM52.87 17.533a.969.969 0 1 0 0-1.937.969.969 0 0 0 0 1.937ZM55.664 17.619a.968.968 0 1 0 0-1.937.968.968 0 0 0 0 1.937ZM50.174 17.685a.968.968 0 1 0 0-1.937.968.968 0 0 0 0 1.937ZM55.79 14.605a.968.968 0 1 0 0-1.937.968.968 0 0 0 0 1.937ZM50.283 20.241a.969.969 0 1 0 0-1.937.969.969 0 0 0 0 1.937ZM53.118 20.292a.969.969 0 1 0 0-1.937.969.969 0 0 0 0 1.937ZM52.87 22.967a.969.969 0 1 0 0-1.937.969.969 0 0 0 0 1.937ZM55.664 23.05a.968.968 0 1 0 0-1.936.968.968 0 0 0 0 1.936ZM50.174 23.119a.968.968 0 1 0 0-1.937.968.968 0 0 0 0 1.937ZM55.79 20.036a.968.968 0 1 0 0-1.937.968.968 0 0 0 0 1.937ZM50.283 25.673a.969.969 0 1 0 0-1.937.969.969 0 0 0 0 1.937ZM53.118 25.726a.969.969 0 1 0 0-1.937.969.969 0 0 0 0 1.937ZM52.87 28.399a.969.969 0 1 0 0-1.937.969.969 0 0 0 0 1.937ZM55.664 28.485a.969.969 0 1 0 0-1.937.969.969 0 0 0 0 1.937ZM50.174 28.55a.968.968 0 1 0 0-1.936.968.968 0 0 0 0 1.936ZM55.79 25.468a.968.968 0 1 0 0-1.937.968.968 0 0 0 0 1.937ZM50.283 31.105a.969.969 0 1 0 0-1.937.969.969 0 0 0 0 1.937ZM53.118 31.158a.969.969 0 1 0 0-1.937.969.969 0 0 0 0 1.937ZM52.87 33.833a.969.969 0 1 0 0-1.937.969.969 0 0 0 0 1.937ZM55.664 33.916a.968.968 0 1 0 0-1.936.968.968 0 0 0 0 1.936ZM50.174 33.985a.968.968 0 1 0 0-1.937.968.968 0 0 0 0 1.937ZM55.79 30.902a.968.968 0 1 0 0-1.937.968.968 0 0 0 0 1.937ZM50.283 36.539a.969.969 0 1 0 0-1.937.969.969 0 0 0 0 1.937ZM53.118 36.59a.969.969 0 1 0 0-1.937.969.969 0 0 0 0 1.937ZM52.87 39.265a.969.969 0 1 0 0-1.937.969.969 0 0 0 0 1.937ZM55.664 39.348a.968.968 0 1 0 0-1.937.968.968 0 0 0 0 1.937ZM50.174 39.416a.968.968 0 1 0 0-1.936.968.968 0 0 0 0 1.937ZM55.79 36.334a.968.968 0 1 0 0-1.937.968.968 0 0 0 0 1.937ZM50.283 41.97a.969.969 0 1 0 0-1.936.969.969 0 0 0 0 1.937ZM53.118 42.024a.969.969 0 1 0 0-1.937.969.969 0 0 0 0 1.937ZM52.87 44.697a.969.969 0 1 0 0-1.938.969.969 0 0 0 0 1.938ZM55.664 44.782a.968.968 0 1 0 0-1.936.968.968 0 0 0 0 1.937ZM50.174 44.848a.968.968 0 1 0 0-1.937.968.968 0 0 0 0 1.937ZM55.79 41.768a.968.968 0 1 0 0-1.937.968.968 0 0 0 0 1.937ZM50.283 47.405a.969.969 0 1 0 0-1.937.969.969 0 0 0 0 1.937ZM53.118 47.456a.969.969 0 1 0 0-1.937.969.969 0 0 0 0 1.937ZM52.87 50.13a.969.969 0 1 0 0-1.936.969.969 0 0 0 0 1.937ZM55.664 50.214a.969.969 0 1 0 0-1.937.969.969 0 0 0 0 1.937ZM50.174 50.283a.968.968 0 1 0 0-1.937.968.968 0 0 0 0 1.937ZM55.79 47.2a.969.969 0 1 0 0-1.937.969.969 0 0 0 0 1.937ZM50.283 52.837a.969.969 0 1 0 0-1.937.969.969 0 0 0 0 1.937ZM53.118 52.89a.969.969 0 1 0 0-1.937.969.969 0 0 0 0 1.937ZM52.87 55.563a.969.969 0 1 0 0-1.938.969.969 0 0 0 0 1.938ZM55.664 55.649a.968.968 0 1 0 0-1.937.968.968 0 0 0 0 1.937ZM50.174 55.714a.968.968 0 1 0 0-1.937.968.968 0 0 0 0 1.937ZM55.79 52.634a.968.968 0 1 0 0-1.937.968.968 0 0 0 0 1.937ZM50.283 58.27a.969.969 0 1 0 0-1.936.969.969 0 0 0 0 1.937ZM53.118 58.322a.969.969 0 1 0 0-1.938.969.969 0 0 0 0 1.938ZM52.87 60.997a.969.969 0 1 0 0-1.937.969.969 0 0 0 0 1.937ZM55.664 61.08a.968.968 0 1 0 0-1.937.968.968 0 0 0 0 1.937ZM50.174 61.149a.968.968 0 1 0 0-1.937.968.968 0 0 0 0 1.937ZM55.79 58.066a.968.968 0 1 0 0-1.937.968.968 0 0 0 0 1.937ZM50.283 63.703a.969.969 0 1 0 0-1.937.969.969 0 0 0 0 1.937ZM53.118 63.756a.969.969 0 1 0 0-1.937.969.969 0 0 0 0 1.937ZM52.87 66.428a.969.969 0 1 0 0-1.937.969.969 0 0 0 0 1.938ZM55.664 66.515a.968.968 0 1 0 0-1.937.968.968 0 0 0 0 1.937ZM50.174 66.58a.968.968 0 1 0 0-1.937.968.968 0 0 0 0 1.937ZM55.79 63.498a.968.968 0 1 0 0-1.937.968.968 0 0 0 0 1.937ZM50.283 69.134a.969.969 0 1 0 0-1.937.969.969 0 0 0 0 1.937ZM53.118 69.188a.969.969 0 1 0 0-1.938.969.969 0 0 0 0 1.938ZM52.87 71.863a.969.969 0 1 0 0-1.937.969.969 0 0 0 0 1.937ZM55.664 71.946a.968.968 0 1 0 0-1.937.968.968 0 0 0 0 1.937ZM50.174 72.015a.968.968 0 1 0 0-1.937.968.968 0 0 0 0 1.937ZM55.79 68.932a.968.968 0 1 0 0-1.937.968.968 0 0 0 0 1.937ZM42.196 14.807a.968.968 0 1 0 0-1.937.968.968 0 0 0 0 1.937ZM45.028 14.86a.968.968 0 1 0 0-1.937.968.968 0 0 0 0 1.937ZM44.78 17.533a.969.969 0 1 0 0-1.937.969.969 0 0 0 0 1.937ZM47.577 17.619a.969.969 0 1 0 0-1.937.969.969 0 0 0 0 1.937ZM42.085 17.685a.968.968 0 1 0 0-1.937.968.968 0 0 0 0 1.937ZM47.701 14.605a.969.969 0 1 0 0-1.937.969.969 0 0 0 0 1.937ZM42.196 20.241a.968.968 0 1 0 0-1.937.968.968 0 0 0 0 1.937ZM45.028 20.292a.968.968 0 1 0 0-1.937.968.968 0 0 0 0 1.937ZM44.78 22.967a.968.968 0 1 0 0-1.937.968.968 0 0 0 0 1.937ZM47.577 23.05a.969.969 0 1 0 0-1.937.969.969 0 0 0 0 1.938ZM42.085 23.119a.968.968 0 1 0 0-1.937.968.968 0 0 0 0 1.937ZM47.701 20.036a.969.969 0 1 0 0-1.937.969.969 0 0 0 0 1.937ZM42.196 25.673a.969.969 0 1 0 0-1.937.969.969 0 0 0 0 1.937ZM45.028 25.726a.968.968 0 1 0 0-1.937.968.968 0 0 0 0 1.937ZM44.78 28.399a.968.968 0 1 0 0-1.937.968.968 0 0 0 0 1.937ZM47.577 28.485a.969.969 0 1 0 0-1.937.969.969 0 0 0 0 1.937ZM42.085 28.55a.968.968 0 1 0 0-1.936.968.968 0 0 0 0 1.936ZM47.701 25.468a.969.969 0 1 0 0-1.937.969.969 0 0 0 0 1.937ZM42.196 31.105a.968.968 0 1 0 0-1.937.968.968 0 0 0 0 1.937ZM45.028 31.158a.968.968 0 1 0 0-1.937.968.968 0 0 0 0 1.937ZM44.78 33.833a.969.969 0 1 0 0-1.937.969.969 0 0 0 0 1.937ZM47.577 33.916a.969.969 0 1 0 0-1.937.969.969 0 0 0 0 1.938ZM42.085 33.985a.968.968 0 1 0 0-1.937.968.968 0 0 0 0 1.937ZM47.701 30.902a.969.969 0 1 0 0-1.937.969.969 0 0 0 0 1.937ZM42.196 36.539a.968.968 0 1 0 0-1.937.968.968 0 0 0 0 1.937ZM45.028 36.59a.968.968 0 1 0 0-1.937.968.968 0 0 0 0 1.937ZM44.78 39.265a.968.968 0 1 0 0-1.937.968.968 0 0 0 0 1.937ZM47.577 39.348a.969.969 0 1 0 0-1.937.969.969 0 0 0 0 1.937ZM42.085 39.416a.968.968 0 1 0 0-1.936.968.968 0 0 0 0 1.937ZM47.701 36.334a.969.969 0 1 0 0-1.937.969.969 0 0 0 0 1.937ZM42.196 41.97a.968.968 0 1 0 0-1.936.968.968 0 0 0 0 1.937ZM45.028 42.024a.968.968 0 1 0 0-1.937.968.968 0 0 0 0 1.937ZM44.78 44.697a.968.968 0 1 0 0-1.937.968.968 0 0 0 0 1.937ZM47.577 44.782a.969.969 0 1 0 0-1.937.969.969 0 0 0 0 1.938ZM42.085 44.848a.968.968 0 1 0 0-1.937.968.968 0 0 0 0 1.937ZM47.701 41.768a.969.969 0 1 0 0-1.937.969.969 0 0 0 0 1.937ZM42.196 47.405a.968.968 0 1 0 0-1.937.968.968 0 0 0 0 1.937ZM45.028 47.456a.968.968 0 1 0 0-1.937.968.968 0 0 0 0 1.937ZM44.78 50.13a.969.969 0 1 0 0-1.936.969.969 0 0 0 0 1.937ZM47.577 50.214a.969.969 0 1 0 0-1.937.969.969 0 0 0 0 1.937ZM42.085 50.283a.968.968 0 1 0 0-1.937.968.968 0 0 0 0 1.937ZM47.701 47.2a.969.969 0 1 0 0-1.937.969.969 0 0 0 0 1.937ZM42.196 52.837a.968.968 0 1 0 0-1.937.968.968 0 0 0 0 1.937ZM45.028 52.89a.968.968 0 1 0 0-1.937.968.968 0 0 0 0 1.937ZM44.78 55.563a.968.968 0 1 0 0-1.937.968.968 0 0 0 0 1.937ZM47.577 55.649a.969.969 0 1 0 0-1.937.969.969 0 0 0 0 1.937ZM42.085 55.714a.968.968 0 1 0 0-1.937.968.968 0 0 0 0 1.937ZM47.701 52.634a.969.969 0 1 0 0-1.937.969.969 0 0 0 0 1.937ZM42.196 58.27a.969.969 0 1 0 0-1.936.969.969 0 0 0 0 1.937ZM45.028 58.322a.968.968 0 1 0 0-1.937.968.968 0 0 0 0 1.937ZM44.78 60.997a.968.968 0 1 0 0-1.937.968.968 0 0 0 0 1.937ZM47.577 61.08a.969.969 0 1 0 0-1.937.969.969 0 0 0 0 1.937ZM42.085 61.149a.968.968 0 1 0 0-1.937.968.968 0 0 0 0 1.937ZM47.701 58.066a.969.969 0 1 0 0-1.937.969.969 0 0 0 0 1.937ZM42.196 63.703a.968.968 0 1 0 0-1.937.968.968 0 0 0 0 1.937ZM45.028 63.756a.968.968 0 1 0 0-1.937.968.968 0 0 0 0 1.937ZM44.78 66.428a.968.968 0 1 0 0-1.936.968.968 0 0 0 0 1.936ZM47.577 66.515a.969.969 0 1 0 0-1.938.969.969 0 0 0 0 1.938ZM42.085 66.58a.968.968 0 1 0 0-1.937.968.968 0 0 0 0 1.937ZM47.701 63.498a.969.969 0 1 0 0-1.937.969.969 0 0 0 0 1.937ZM42.196 69.134a.968.968 0 1 0 0-1.937.968.968 0 0 0 0 1.937ZM45.028 69.188a.968.968 0 1 0 0-1.937.968.968 0 0 0 0 1.936ZM44.78 71.863a.968.968 0 1 0 0-1.937.968.968 0 0 0 0 1.937ZM47.577 71.946a.969.969 0 1 0 0-1.937.969.969 0 0 0 0 1.937ZM42.085 72.015a.968.968 0 1 0 0-1.937.968.968 0 0 0 0 1.937ZM47.701 68.932a.969.969 0 1 0 0-1.937.969.969 0 0 0 0 1.937ZM34.107 14.807a.968.968 0 1 0 0-1.937.968.968 0 0 0 0 1.937ZM36.939 14.86a.968.968 0 1 0 0-1.937.968.968 0 0 0 0 1.937ZM36.69 17.533a.969.969 0 1 0 0-1.937.969.969 0 0 0 0 1.937ZM39.488 17.619a.968.968 0 1 0 0-1.937.968.968 0 0 0 0 1.937ZM33.995 17.685a.968.968 0 1 0 0-1.937.968.968 0 0 0 0 1.937ZM39.612 14.605a.968.968 0 1 0 0-1.937.968.968 0 0 0 0 1.937ZM34.107 20.241a.968.968 0 1 0 0-1.937.968.968 0 0 0 0 1.937ZM36.939 20.292a.968.968 0 1 0 0-1.937.968.968 0 0 0 0 1.937ZM36.69 22.967a.968.968 0 1 0 0-1.937.968.968 0 0 0 0 1.937ZM39.488 23.05a.968.968 0 1 0 0-1.936.968.968 0 0 0 0 1.936ZM33.995 23.119a.968.968 0 1 0 0-1.937.968.968 0 0 0 0 1.937ZM39.612 20.036a.968.968 0 1 0 0-1.937.968.968 0 0 0 0 1.937ZM34.107 25.673a.969.969 0 1 0 0-1.937.969.969 0 0 0 0 1.937ZM36.939 25.726a.968.968 0 1 0 0-1.937.968.968 0 0 0 0 1.937ZM36.69 28.399a.968.968 0 1 0 0-1.937.968.968 0 0 0 0 1.937ZM39.488 28.485a.969.969 0 1 0 0-1.937.969.969 0 0 0 0 1.937ZM33.995 28.55a.968.968 0 1 0 0-1.936.968.968 0 0 0 0 1.936ZM39.612 25.468a.968.968 0 1 0 0-1.937.968.968 0 0 0 0 1.937ZM34.107 31.105a.968.968 0 1 0 0-1.937.968.968 0 0 0 0 1.937ZM36.939 31.158a.968.968 0 1 0 0-1.937.968.968 0 0 0 0 1.937ZM36.69 33.833a.969.969 0 1 0 0-1.937.969.969 0 0 0 0 1.937ZM39.488 33.916a.968.968 0 1 0 0-1.936.968.968 0 0 0 0 1.936ZM33.995 33.985a.968.968 0 1 0 0-1.937.968.968 0 0 0 0 1.937ZM39.612 30.902a.968.968 0 1 0 0-1.937.968.968 0 0 0 0 1.937ZM34.107 36.539a.968.968 0 1 0 0-1.937.968.968 0 0 0 0 1.937ZM36.939 36.59a.968.968 0 1 0 0-1.937.968.968 0 0 0 0 1.937ZM36.69 39.265a.968.968 0 1 0 0-1.937.968.968 0 0 0 0 1.937ZM39.488 39.348a.968.968 0 1 0 0-1.937.968.968 0 0 0 0 1.937ZM33.995 39.416a.968.968 0 1 0 0-1.936.968.968 0 0 0 0 1.937ZM39.612 36.334a.968.968 0 1 0 0-1.937.968.968 0 0 0 0 1.937ZM34.107 41.97a.968.968 0 1 0 0-1.936.968.968 0 0 0 0 1.937ZM36.939 42.024a.968.968 0 1 0 0-1.937.968.968 0 0 0 0 1.937ZM36.69 44.697a.968.968 0 1 0 0-1.937.968.968 0 0 0 0 1.937ZM39.488 44.782a.968.968 0 1 0 0-1.936.968.968 0 0 0 0 1.937ZM33.995 44.848a.968.968 0 1 0 0-1.937.968.968 0 0 0 0 1.937ZM39.612 41.768a.968.968 0 1 0 0-1.937.968.968 0 0 0 0 1.937ZM34.107 47.405a.968.968 0 1 0 0-1.937.968.968 0 0 0 0 1.937ZM36.939 47.456a.968.968 0 1 0 0-1.937.968.968 0 0 0 0 1.937ZM36.69 50.13a.969.969 0 1 0 0-1.936.969.969 0 0 0 0 1.937ZM39.488 50.214a.969.969 0 1 0 0-1.937.969.969 0 0 0 0 1.937ZM33.995 50.283a.968.968 0 1 0 0-1.937.968.968 0 0 0 0 1.937ZM39.612 47.2a.969.969 0 1 0 0-1.937.969.969 0 0 0 0 1.937ZM34.107 52.837a.968.968 0 1 0 0-1.937.968.968 0 0 0 0 1.937ZM36.939 52.89a.968.968 0 1 0 0-1.937.968.968 0 0 0 0 1.937ZM36.69 55.563a.968.968 0 1 0 0-1.937.968.968 0 0 0 0 1.937ZM39.488 55.649a.968.968 0 1 0 0-1.937.968.968 0 0 0 0 1.937ZM33.995 55.714a.968.968 0 1 0 0-1.937.968.968 0 0 0 0 1.937ZM39.612 52.634a.968.968 0 1 0 0-1.937.968.968 0 0 0 0 1.937ZM34.107 58.27a.969.969 0 1 0 0-1.936.969.969 0 0 0 0 1.937ZM36.939 58.322a.968.968 0 1 0 0-1.937.968.968 0 0 0 0 1.937ZM36.69 60.997a.968.968 0 1 0 0-1.937.968.968 0 0 0 0 1.937ZM39.488 61.08a.968.968 0 1 0 0-1.937.968.968 0 0 0 0 1.937ZM33.995 61.149a.968.968 0 1 0 0-1.937.968.968 0 0 0 0 1.937ZM39.612 58.066a.968.968 0 1 0 0-1.937.968.968 0 0 0 0 1.937ZM34.107 63.703a.968.968 0 1 0 0-1.937.968.968 0 0 0 0 1.937ZM36.939 63.756a.968.968 0 1 0 0-1.937.968.968 0 0 0 0 1.937ZM36.69 66.428a.968.968 0 1 0 0-1.936.968.968 0 0 0 0 1.936ZM39.488 66.515a.968.968 0 1 0 0-1.937.968.968 0 0 0 0 1.937ZM33.995 66.58a.968.968 0 1 0 0-1.937.968.968 0 0 0 0 1.937ZM39.612 63.498a.968.968 0 1 0 0-1.937.968.968 0 0 0 0 1.937ZM34.107 69.134a.968.968 0 1 0 0-1.937.968.968 0 0 0 0 1.937ZM36.939 69.188a.968.968 0 1 0 0-1.937.968.968 0 0 0 0 1.936ZM36.69 71.863a.968.968 0 1 0 0-1.937.968.968 0 0 0 0 1.937ZM39.488 71.946a.968.968 0 1 0 0-1.937.968.968 0 0 0 0 1.937ZM33.995 72.015a.968.968 0 1 0 0-1.937.968.968 0 0 0 0 1.937ZM39.612 68.932a.968.968 0 1 0 0-1.937.968.968 0 0 0 0 1.937ZM26.017 14.807a.968.968 0 1 0 0-1.937.968.968 0 0 0 0 1.937ZM28.852 14.86a.968.968 0 1 0 0-1.937.968.968 0 0 0 0 1.937ZM28.604 17.533a.969.969 0 1 0 0-1.937.969.969 0 0 0 0 1.937ZM31.398 17.619a.968.968 0 1 0 0-1.937.968.968 0 0 0 0 1.937ZM25.909 17.685a.969.969 0 1 0 0-1.937.969.969 0 0 0 0 1.937ZM31.522 14.605a.968.968 0 1 0 0-1.937.968.968 0 0 0 0 1.937ZM26.017 20.241a.968.968 0 1 0 0-1.937.968.968 0 0 0 0 1.937ZM28.852 20.292a.968.968 0 1 0 0-1.937.968.968 0 0 0 0 1.937ZM28.604 22.967a.968.968 0 1 0 0-1.937.968.968 0 0 0 0 1.937ZM31.398 23.05a.968.968 0 1 0 0-1.936.968.968 0 0 0 0 1.936ZM25.909 23.119a.969.969 0 1 0 0-1.937.969.969 0 0 0 0 1.937ZM31.522 20.036a.968.968 0 1 0 0-1.937.968.968 0 0 0 0 1.937ZM26.017 25.673a.969.969 0 1 0 0-1.937.969.969 0 0 0 0 1.937ZM28.852 25.726a.968.968 0 1 0 0-1.937.968.968 0 0 0 0 1.937ZM28.604 28.399a.968.968 0 1 0 0-1.937.968.968 0 0 0 0 1.937ZM31.398 28.485a.969.969 0 1 0 0-1.937.969.969 0 0 0 0 1.937ZM25.909 28.55a.969.969 0 1 0 0-1.937.969.969 0 0 0 0 1.938ZM31.522 25.468a.968.968 0 1 0 0-1.937.968.968 0 0 0 0 1.937ZM26.017 31.105a.968.968 0 1 0 0-1.937.968.968 0 0 0 0 1.937ZM28.852 31.158a.968.968 0 1 0 0-1.937.968.968 0 0 0 0 1.937ZM28.604 33.833a.969.969 0 1 0 0-1.937.969.969 0 0 0 0 1.937ZM31.398 33.916a.968.968 0 1 0 0-1.936.968.968 0 0 0 0 1.936ZM25.909 33.985a.969.969 0 1 0 0-1.937.969.969 0 0 0 0 1.937ZM31.522 30.902a.968.968 0 1 0 0-1.937.968.968 0 0 0 0 1.937ZM26.017 36.539a.968.968 0 1 0 0-1.937.968.968 0 0 0 0 1.937ZM28.852 36.59a.968.968 0 1 0 0-1.937.968.968 0 0 0 0 1.937ZM28.604 39.265a.968.968 0 1 0 0-1.937.968.968 0 0 0 0 1.937ZM31.398 39.348a.968.968 0 1 0 0-1.937.968.968 0 0 0 0 1.937ZM25.909 39.416a.969.969 0 1 0 0-1.937.969.969 0 0 0 0 1.938ZM31.522 36.334a.968.968 0 1 0 0-1.937.968.968 0 0 0 0 1.937ZM26.017 41.97a.968.968 0 1 0 0-1.936.968.968 0 0 0 0 1.937ZM28.852 42.024a.968.968 0 1 0 0-1.937.968.968 0 0 0 0 1.937ZM28.604 44.697a.968.968 0 1 0 0-1.937.968.968 0 0 0 0 1.937ZM31.398 44.782a.968.968 0 1 0 0-1.936.968.968 0 0 0 0 1.937ZM25.909 44.848a.969.969 0 1 0 0-1.937.969.969 0 0 0 0 1.937ZM31.522 41.768a.968.968 0 1 0 0-1.937.968.968 0 0 0 0 1.937ZM26.017 47.405a.968.968 0 1 0 0-1.937.968.968 0 0 0 0 1.937ZM28.852 47.456a.968.968 0 1 0 0-1.937.968.968 0 0 0 0 1.937ZM28.604 50.13a.969.969 0 1 0 0-1.936.969.969 0 0 0 0 1.937ZM31.398 50.214a.969.969 0 1 0 0-1.937.969.969 0 0 0 0 1.937ZM25.909 50.283a.969.969 0 1 0 0-1.937.969.969 0 0 0 0 1.937ZM31.522 47.2a.969.969 0 1 0 0-1.937.969.969 0 0 0 0 1.937ZM26.017 52.837a.968.968 0 1 0 0-1.937.968.968 0 0 0 0 1.937ZM28.852 52.89a.968.968 0 1 0 0-1.937.968.968 0 0 0 0 1.937ZM28.604 55.563a.968.968 0 1 0 0-1.937.968.968 0 0 0 0 1.937ZM31.398 55.649a.968.968 0 1 0 0-1.937.968.968 0 0 0 0 1.937ZM25.909 55.714a.969.969 0 1 0 0-1.937.969.969 0 0 0 0 1.937ZM31.522 52.634a.968.968 0 1 0 0-1.937.968.968 0 0 0 0 1.937ZM26.017 58.27a.969.969 0 1 0 0-1.936.969.969 0 0 0 0 1.937ZM28.852 58.322a.968.968 0 1 0 0-1.937.968.968 0 0 0 0 1.937ZM28.604 60.997a.968.968 0 1 0 0-1.937.968.968 0 0 0 0 1.937ZM31.398 61.08a.968.968 0 1 0 0-1.937.968.968 0 0 0 0 1.937ZM25.909 61.149a.969.969 0 1 0 0-1.937.969.969 0 0 0 0 1.937ZM31.522 58.066a.968.968 0 1 0 0-1.937.968.968 0 0 0 0 1.937ZM26.017 63.703a.968.968 0 1 0 0-1.937.968.968 0 0 0 0 1.937ZM28.852 63.756a.968.968 0 1 0 0-1.937.968.968 0 0 0 0 1.937ZM28.604 66.428a.968.968 0 1 0 0-1.936.968.968 0 0 0 0 1.936ZM31.398 66.515a.968.968 0 1 0 0-1.937.968.968 0 0 0 0 1.937ZM25.909 66.58a.969.969 0 1 0 0-1.937.969.969 0 0 0 0 1.937ZM31.522 63.498a.968.968 0 1 0 0-1.937.968.968 0 0 0 0 1.937ZM26.017 69.134a.968.968 0 1 0 0-1.937.968.968 0 0 0 0 1.937ZM28.852 69.188a.968.968 0 1 0 0-1.937.968.968 0 0 0 0 1.936ZM28.604 71.863a.968.968 0 1 0 0-1.937.968.968 0 0 0 0 1.937ZM31.398 71.946a.968.968 0 1 0 0-1.937.968.968 0 0 0 0 1.937ZM25.909 72.015a.969.969 0 1 0 0-1.937.969.969 0 0 0 0 1.937ZM31.522 68.932a.968.968 0 1 0 0-1.937.968.968 0 0 0 0 1.937ZM17.928 14.807a.968.968 0 1 0 0-1.937.968.968 0 0 0 0 1.937ZM20.762 14.86a.969.969 0 1 0 0-1.937.969.969 0 0 0 0 1.937ZM20.515 17.533a.969.969 0 1 0 0-1.937.969.969 0 0 0 0 1.937ZM23.309 17.619a.968.968 0 1 0 0-1.937.968.968 0 0 0 0 1.937ZM17.819 17.685a.968.968 0 1 0 0-1.937.968.968 0 0 0 0 1.937ZM23.435 14.605a.968.968 0 1 0 0-1.937.968.968 0 0 0 0 1.937ZM17.928 20.241a.968.968 0 1 0 0-1.937.968.968 0 0 0 0 1.937ZM20.762 20.292a.969.969 0 1 0 0-1.937.969.969 0 0 0 0 1.937ZM20.515 22.967a.969.969 0 1 0 0-1.937.969.969 0 0 0 0 1.937ZM23.309 23.05a.968.968 0 1 0 0-1.936.968.968 0 0 0 0 1.936ZM17.819 23.119a.968.968 0 1 0 0-1.937.968.968 0 0 0 0 1.937ZM23.435 20.036a.968.968 0 1 0 0-1.937.968.968 0 0 0 0 1.937ZM17.928 25.673a.969.969 0 1 0 0-1.937.969.969 0 0 0 0 1.937ZM20.762 25.726a.969.969 0 1 0 0-1.937.969.969 0 0 0 0 1.937ZM20.515 28.399a.969.969 0 1 0 0-1.937.969.969 0 0 0 0 1.937ZM23.309 28.485a.969.969 0 1 0 0-1.937.969.969 0 0 0 0 1.937ZM17.819 28.55a.968.968 0 1 0 0-1.936.968.968 0 0 0 0 1.936ZM23.435 25.468a.968.968 0 1 0 0-1.937.968.968 0 0 0 0 1.937ZM17.928 31.105a.968.968 0 1 0 0-1.937.968.968 0 0 0 0 1.937ZM20.762 31.158a.969.969 0 1 0 0-1.937.969.969 0 0 0 0 1.937ZM20.515 33.833a.969.969 0 1 0 0-1.937.969.969 0 0 0 0 1.937ZM23.309 33.916a.968.968 0 1 0 0-1.936.968.968 0 0 0 0 1.936ZM17.819 33.985a.968.968 0 1 0 0-1.937.968.968 0 0 0 0 1.937ZM23.435 30.902a.968.968 0 1 0 0-1.937.968.968 0 0 0 0 1.937ZM17.928 36.539a.968.968 0 1 0 0-1.937.968.968 0 0 0 0 1.937ZM20.762 36.59a.969.969 0 1 0 0-1.937.969.969 0 0 0 0 1.937ZM20.515 39.265a.969.969 0 1 0 0-1.937.969.969 0 0 0 0 1.937ZM23.309 39.348a.968.968 0 1 0 0-1.937.968.968 0 0 0 0 1.937ZM17.819 39.416a.968.968 0 1 0 0-1.936.968.968 0 0 0 0 1.937ZM23.435 36.334a.968.968 0 1 0 0-1.937.968.968 0 0 0 0 1.937ZM17.928 41.97a.968.968 0 1 0 0-1.936.968.968 0 0 0 0 1.937ZM20.762 42.024a.969.969 0 1 0 0-1.937.969.969 0 0 0 0 1.937ZM20.515 44.697a.969.969 0 1 0 0-1.938.969.969 0 0 0 0 1.938ZM23.309 44.782a.968.968 0 1 0 0-1.936.968.968 0 0 0 0 1.937ZM17.819 44.848a.968.968 0 1 0 0-1.937.968.968 0 0 0 0 1.937ZM23.435 41.768a.968.968 0 1 0 0-1.937.968.968 0 0 0 0 1.937ZM17.928 47.405a.968.968 0 1 0 0-1.937.968.968 0 0 0 0 1.937ZM20.762 47.456a.969.969 0 1 0 0-1.937.969.969 0 0 0 0 1.937ZM20.515 50.13a.969.969 0 1 0 0-1.936.969.969 0 0 0 0 1.937ZM23.309 50.214a.969.969 0 1 0 0-1.937.969.969 0 0 0 0 1.937ZM17.819 50.283a.968.968 0 1 0 0-1.937.968.968 0 0 0 0 1.937ZM23.435 47.2a.969.969 0 1 0 0-1.937.969.969 0 0 0 0 1.937ZM17.928 52.837a.968.968 0 1 0 0-1.937.968.968 0 0 0 0 1.937ZM20.762 52.89a.969.969 0 1 0 0-1.937.969.969 0 0 0 0 1.937ZM20.515 55.563a.969.969 0 1 0 0-1.938.969.969 0 0 0 0 1.938ZM23.309 55.649a.968.968 0 1 0 0-1.937.968.968 0 0 0 0 1.937ZM17.819 55.714a.968.968 0 1 0 0-1.937.968.968 0 0 0 0 1.937ZM23.435 52.634a.968.968 0 1 0 0-1.937.968.968 0 0 0 0 1.937ZM17.928 58.27a.969.969 0 1 0 0-1.936.969.969 0 0 0 0 1.937ZM20.762 58.322a.969.969 0 1 0 0-1.938.969.969 0 0 0 0 1.938ZM20.515 60.997a.969.969 0 1 0 0-1.937.969.969 0 0 0 0 1.937ZM23.309 61.08a.968.968 0 1 0 0-1.937.968.968 0 0 0 0 1.937ZM17.819 61.149a.968.968 0 1 0 0-1.937.968.968 0 0 0 0 1.937ZM23.435 58.066a.968.968 0 1 0 0-1.937.968.968 0 0 0 0 1.937ZM17.928 63.703a.968.968 0 1 0 0-1.937.968.968 0 0 0 0 1.937ZM20.762 63.756a.969.969 0 1 0 0-1.937.969.969 0 0 0 0 1.937ZM20.515 66.428a.969.969 0 1 0 0-1.937.969.969 0 0 0 0 1.938ZM23.309 66.515a.968.968 0 1 0 0-1.937.968.968 0 0 0 0 1.937ZM17.819 66.58a.968.968 0 1 0 0-1.937.968.968 0 0 0 0 1.937ZM23.435 63.498a.968.968 0 1 0 0-1.937.968.968 0 0 0 0 1.937ZM17.928 69.134a.968.968 0 1 0 0-1.937.968.968 0 0 0 0 1.937ZM20.762 69.188a.969.969 0 1 0 0-1.938.969.969 0 0 0 0 1.938ZM20.515 71.863a.969.969 0 1 0 0-1.937.969.969 0 0 0 0 1.937ZM23.309 71.946a.968.968 0 1 0 0-1.937.968.968 0 0 0 0 1.937ZM17.819 72.015a.968.968 0 1 0 0-1.937.968.968 0 0 0 0 1.937ZM23.435 68.932a.968.968 0 1 0 0-1.937.968.968 0 0 0 0 1.937ZM15.22 17.619a.968.968 0 1 0 0-1.937.968.968 0 0 0 0 1.937ZM15.346 14.605a.968.968 0 1 0 0-1.937.968.968 0 0 0 0 1.937ZM15.22 23.05a.968.968 0 1 0 0-1.936.968.968 0 0 0 0 1.936ZM15.346 20.036a.968.968 0 1 0 0-1.937.968.968 0 0 0 0 1.937ZM15.22 28.485a.969.969 0 1 0 0-1.937.969.969 0 0 0 0 1.937ZM15.346 25.468a.968.968 0 1 0 0-1.937.968.968 0 0 0 0 1.937ZM15.22 33.916a.968.968 0 1 0 0-1.936.968.968 0 0 0 0 1.936ZM15.346 30.902a.968.968 0 1 0 0-1.937.968.968 0 0 0 0 1.937ZM15.22 39.348a.968.968 0 1 0 0-1.937.968.968 0 0 0 0 1.937ZM15.346 36.334a.968.968 0 1 0 0-1.937.968.968 0 0 0 0 1.937ZM15.22 44.782a.968.968 0 1 0 0-1.936.968.968 0 0 0 0 1.937ZM15.346 41.768a.968.968 0 1 0 0-1.937.968.968 0 0 0 0 1.937ZM15.22 50.214a.969.969 0 1 0 0-1.937.969.969 0 0 0 0 1.937ZM15.346 47.2a.969.969 0 1 0 0-1.937.969.969 0 0 0 0 1.937ZM15.22 55.649a.968.968 0 1 0 0-1.937.968.968 0 0 0 0 1.937ZM15.346 52.634a.968.968 0 1 0 0-1.937.968.968 0 0 0 0 1.937ZM15.22 61.08a.968.968 0 1 0 0-1.937.968.968 0 0 0 0 1.937ZM15.346 58.066a.968.968 0 1 0 0-1.937.968.968 0 0 0 0 1.937ZM15.22 66.515a.968.968 0 1 0 0-1.937.968.968 0 0 0 0 1.937ZM15.346 63.498a.968.968 0 1 0 0-1.937.968.968 0 0 0 0 1.937ZM15.22 71.946a.968.968 0 1 0 0-1.937.968.968 0 0 0 0 1.937ZM15.346 68.932a.968.968 0 1 0 0-1.937.968.968 0 0 0 0 1.937Z"/></g><path d="m24.862 60.117-.969-1.492 21.869-14.189 15.521-19.524 1.39 1.108-15.7 19.751-22.111 14.346Z" fill="#1C5C65"/><path d="m73.712 69.961-5.528-4.787a1.674 1.674 0 0 0-2.514 1.452v3.942H17.624a3.143 3.143 0 0 0-2.101-2.066v-47.37h3.985a1.675 1.675 0 0 0 1.452-2.517l-4.79-5.525a1.676 1.676 0 0 0-2.903 0L8.48 18.615a1.677 1.677 0 0 0 1.452 2.529h3.82v47.36a3.126 3.126 0 1 0 3.9 3.842h48.02V76.2a1.674 1.674 0 0 0 2.514 1.451l5.526-4.787a1.676 1.676 0 0 0 0-2.903Z" fill="#FF8B7C"/><path d="M25.218 64.408a5.54 5.54 0 1 0 0-11.08 5.54 5.54 0 0 0 0 11.08Z" fill="#fff"/><path d="M25.218 65.296a6.428 6.428 0 1 1 6.428-6.428 6.436 6.436 0 0 1-6.428 6.428Zm0-11.079a4.65 4.65 0 1 0 4.648 4.65 4.655 4.655 0 0 0-4.648-4.637v-.013Z" fill="#1C5C65"/><path d="M46.366 50.644a5.54 5.54 0 1 0 0-11.08 5.54 5.54 0 0 0 0 11.08Z" fill="#fff"/><path d="M46.368 51.532a6.428 6.428 0 1 1 6.428-6.428 6.436 6.436 0 0 1-6.428 6.428Zm0-11.078a4.65 4.65 0 1 0-.005 9.3 4.65 4.65 0 0 0 .005-9.3Z" fill="#1C5C65"/><path d="M61.978 31.006a5.54 5.54 0 1 0 0-11.081 5.54 5.54 0 0 0 0 11.081Z" fill="#fff"/><path d="M61.978 31.894a6.43 6.43 0 1 1-.005-12.862 6.43 6.43 0 0 1 .005 12.862Zm0-11.079a4.65 4.65 0 1 0-.005 9.3 4.65 4.65 0 0 0 .005-9.3Z" fill="#1C5C65"/></svg>