<svg xmlns="http://www.w3.org/2000/svg" viewBox="0 0 296.57 296.57"><defs><pattern id="New_Pattern" data-name="New Pattern" width="234.52" height="234.26" patternTransform="matrix(.57 0 0 .57 -5533.35 -3099.97)" patternUnits="userSpaceOnUse"><path style="fill:none" d="M0 0h234.52v234.26H0z"/><path class="cls-2" d="M29.28 233.22c20.21-9.72-.45-27.23-15.53-21.67-17.26 6.37 3.15 27.63 15.53 21.67ZM38.22 175.46c-3.25 4.71-2.49 11.82 4.37 15.44 15.06 7.95 23.91-18.19 6.34-20a11.18 11.18 0 0 0-10.71 4.56ZM12.68 179.67c4.61-18-21-16-22.53-.68-1.51 15.57 19.08 14.17 22.53.68ZM18.82 150.94c2.84-1.71 4.77-4.84 4.51-9.37C22.17 121.38-8.5 127.88 1.48 146c3.57 6.48 12.05 8.13 17.34 4.94ZM75.38 206.19c-7-2.62-14.89-.92-16.57 8.78-1.23 7.05 4 13.86 10.41 16.69 5.61 2.49 12.12 1.91 15.91-4.25 5.59-9.06-1.49-18.13-9.75-21.22ZM155.48 234c-3.25 4.72-2.48 11.82 4.37 15.44 15.06 8 23.91-18.18 6.34-20a11.17 11.17 0 0 0-10.71 4.56ZM129.94 238.23c4.61-18-21-16-22.53-.68-1.51 15.58 19.08 14.17 22.53.68ZM136.08 209.51c2.85-1.72 4.77-4.84 4.51-9.38-1.16-20.19-31.83-13.69-21.85 4.44 3.57 6.43 12.05 8.13 17.34 4.94ZM192.64 147.63c-7-2.62-14.89-.92-16.57 8.77-1.23 7 4 13.86 10.41 16.69 5.61 2.49 12.12 1.92 15.91-4.24 5.61-9.06-1.49-18.14-9.75-21.22ZM247.2 179.67c4.61-18-21-16-22.53-.68-1.51 15.57 19.08 14.17 22.53.68ZM194.65 195.47a18 18 0 0 0-3.25 1.77c-13.65 9.29.23 26 13.47 23.37 22.79-4.56 6.88-32.17-10.22-25.14ZM253.34 150.94c2.85-1.71 4.77-4.84 4.51-9.37C256.69 121.38 226 127.88 236 146c3.57 6.48 12.05 8.13 17.34 4.94ZM29.28 116.09c20.21-9.72-.45-27.23-15.53-21.67-17.26 6.37 3.15 27.63 15.53 21.67ZM38.22 58.33C35 63 35.73 70.15 42.59 73.77c15.06 8 23.91-18.19 6.34-20a11.18 11.18 0 0 0-10.71 4.56ZM12.68 62.54c4.61-18-21-16-22.53-.68-1.51 15.57 19.08 14.14 22.53.68ZM18.82 33.81c2.84-1.71 4.77-4.84 4.51-9.37C22.17 4.25-8.5 10.75 1.48 28.87c3.57 6.48 12.05 8.13 17.34 4.94ZM146.54 174.65c20.21-9.72-.45-27.23-15.53-21.66-17.26 6.36 3.15 27.62 15.53 21.66ZM75.38 89.06c-7-2.62-14.89-.92-16.57 8.78-1.23 7 4 13.86 10.41 16.69 5.61 2.49 12.12 1.91 15.91-4.25 5.59-9.06-1.49-18.13-9.75-21.22ZM155.48 116.89c-3.25 4.72-2.48 11.82 4.37 15.44 15.06 7.95 23.91-18.18 6.34-20a11.17 11.17 0 0 0-10.71 4.56ZM129.94 121.1c4.61-18-21-16-22.53-.68-1.51 15.58 19.08 14.17 22.53.68ZM77.39 136.91a17.89 17.89 0 0 0-3.25 1.76c-13.65 9.3.23 26 13.47 23.37 22.79-4.55 6.88-32.17-10.22-25.13ZM136.08 92.38c2.85-1.72 4.77-4.84 4.51-9.38-1.16-20.19-31.83-13.69-21.85 4.44 3.57 6.47 12.05 8.13 17.34 4.94ZM192.64 30.5c-7-2.62-14.89-.92-16.57 8.77-1.23 7 4 13.86 10.41 16.69 5.61 2.49 12.12 1.92 15.91-4.24 5.61-9.06-1.49-18.14-9.75-21.22ZM247.2 62.54c4.61-18-21-16-22.53-.68-1.51 15.57 19.08 14.14 22.53.68ZM194.65 78.34a18 18 0 0 0-3.25 1.77c-13.65 9.29.23 26 13.47 23.37 22.79-4.56 6.88-32.17-10.22-25.14ZM253.34 33.81c2.85-1.71 4.77-4.84 4.51-9.37C256.69 4.25 226 10.75 236 28.87c3.57 6.48 12.05 8.13 17.34 4.94ZM146.54 57.52c20.21-9.72-.45-27.23-15.53-21.66-17.26 6.36 3.15 27.62 15.53 21.66ZM155.48-.24c-3.25 4.72-2.48 11.82 4.37 15.44 15.06 8 23.91-18.18 6.34-20a11.17 11.17 0 0 0-10.71 4.56ZM129.94 4c4.61-18-21-16-22.53-.68-1.51 15.55 19.08 14.14 22.53.68ZM77.39 19.78a17.89 17.89 0 0 0-3.25 1.76c-13.65 9.3.23 26 13.47 23.37 22.79-4.55 6.88-32.17-10.22-25.13Z"/></pattern><style>.cls-2{fill:#017187}.cls-3{fill:#3cb6ce}.cls-5{fill:url(#New_Pattern)}.cls-6{fill:#87bd40}.cls-8{fill:#fff}</style></defs><g id="Layer_2" data-name="Layer 2"><g id="Illos"><path class="cls-3" d="M118 284a42.91 42.91 0 0 1-8.32-49l38.61-104 38.61 104a42.92 42.92 0 0 1-8.27 49 42.92 42.92 0 0 1-60.63 0Z"/><path class="cls-3" d="M265.71 73.77a42.91 42.91 0 0 1-28.84 40.54L136 160.56l46.27-100.85a42.9 42.9 0 0 1 40.53-28.84 42.91 42.91 0 0 1 42.91 42.9Z"/><path class="cls-3" d="M30.87 222.8a42.9 42.9 0 0 1 28.84-40.53L160.56 136l-46.25 100.87a42.91 42.91 0 0 1-40.54 28.84 42.91 42.91 0 0 1-42.9-42.91Z"/><path class="cls-3" d="M73.77 30.87a42.9 42.9 0 0 1 40.54 28.84l46.25 100.85-100.85-46.25a42.9 42.9 0 0 1-28.84-40.54 42.9 42.9 0 0 1 42.9-42.9Z"/><path class="cls-3" d="M12.57 118a42.9 42.9 0 0 1 49.06-8.27l104 38.61-104 38.61a42.92 42.92 0 0 1-49.06-8.27 42.9 42.9 0 0 1 0-60.68Z"/><g style="opacity:.3"><path class="cls-5" d="M118 284a42.91 42.91 0 0 1-8.32-49l38.61-104 38.61 104a42.92 42.92 0 0 1-8.27 49 42.92 42.92 0 0 1-60.63 0Z"/><path class="cls-5" d="M265.71 73.77a42.91 42.91 0 0 1-28.84 40.54L136 160.56l46.27-100.85a42.9 42.9 0 0 1 40.53-28.84 42.91 42.91 0 0 1 42.91 42.9Z"/><path class="cls-5" d="M30.87 222.8a42.9 42.9 0 0 1 28.84-40.53L160.56 136l-46.25 100.87a42.91 42.91 0 0 1-40.54 28.84 42.91 42.91 0 0 1-42.9-42.91Z"/><path class="cls-5" d="M73.77 30.87a42.9 42.9 0 0 1 40.54 28.84l46.25 100.85-100.85-46.25a42.9 42.9 0 0 1-28.84-40.54 42.9 42.9 0 0 1 42.9-42.9Z"/><path class="cls-5" d="M12.57 118a42.9 42.9 0 0 1 49.06-8.27l104 38.61-104 38.61a42.92 42.92 0 0 1-49.06-8.27 42.9 42.9 0 0 1 0-60.68Z"/></g><path class="cls-6" d="M222.8 265.71a42.91 42.91 0 0 1-40.53-28.84L136 136l100.86 46.26a42.91 42.91 0 0 1 28.84 40.53 42.91 42.91 0 0 1-42.9 42.92Z"/><path class="cls-6" d="M284 178.63a42.92 42.92 0 0 1-49 8.27l-104-38.61 104-38.61a42.91 42.91 0 0 1 49 8.32 42.92 42.92 0 0 1 0 60.63Z"/><path d="M178.63 12.57a42.92 42.92 0 0 1 8.27 49.06l-38.61 104-38.61-104A42.9 42.9 0 0 1 118 12.57a42.9 42.9 0 0 1 60.63 0Z" style="fill:#ff8672"/><path class="cls-8" d="m253.76 131.47-1.15 1.16a3.13 3.13 0 0 1-4.41 0l-1.2-1.16a14 14 0 0 0-19.77 0 14 14 0 0 0 0 19.78l23.13 23.13 23.14-23.13a14 14 0 0 0 0-19.78 14 14 0 0 0-19.74 0ZM224.65 204.73l-1.16 1.16a3.12 3.12 0 0 1-4.4 0l-1.16-1.16a14 14 0 0 0-19.78 0 14 14 0 0 0 0 19.78l23.14 23.13 23.13-23.13a14 14 0 0 0 0-19.78 14 14 0 0 0-19.77 0ZM133.61 73.75a20.76 20.76 0 0 1 0-29.36l14.68-14.69L163 44.39a20.76 20.76 0 0 1 0 29.36 20.77 20.77 0 0 1-29.39 0Z"/><circle cx="148.29" cy="148.29" r="23.68" style="fill:#004953"/></g></g></svg>