<svg xmlns="http://www.w3.org/2000/svg" width="80" height="60"><path fill="#efefed" d="M0 0h80v60H0z"/><path d="M27.989 33.779c-5.956 0-10.8-4.846-10.8-10.801s4.845-10.799 10.8-10.799c5.955 0 10.8 4.845 10.8 10.799 0 5.955-4.845 10.801-10.8 10.801zm0-18.235c-4.099 0-7.435 3.335-7.435 7.434 0 4.1 3.335 7.434 7.435 7.434s7.435-3.334 7.435-7.434c0-4.099-3.335-7.434-7.435-7.434z" fill="#ef4f7c"/><path d="M27.989 47.898a1.684 1.684 0 0 1-1.683-1.684V32.095a1.683 1.683 0 1 1 3.366 0v14.119c0 .93-.754 1.684-1.683 1.684z" fill="#ef4f7c"/><path d="M35.231 40.615H20.747a1.683 1.683 0 0 1 0-3.366h14.484a1.684 1.684 0 0 1 0 3.366z" fill="#ef4f7c"/><g><path d="M51.318 47.898c-5.955 0-10.8-4.846-10.8-10.801s4.845-10.799 10.8-10.799 10.801 4.844 10.801 10.799-4.846 10.801-10.801 10.801zm0-18.234c-4.1 0-7.435 3.334-7.435 7.434s3.335 7.436 7.435 7.436 7.435-3.336 7.435-7.436-3.335-7.434-7.435-7.434z" fill="#35a5b6"/><path d="M51.318 29.664c-.93 0-1.683-.754-1.683-1.683v-14.12a1.682 1.682 0 1 1 3.366 0v14.12c0 .929-.753 1.683-1.683 1.683z" fill="#35a5b6"/><path d="M58.56 19.488c-.273 0-.551-.066-.808-.208l-6.514-3.571-6.336 3.562a1.684 1.684 0 0 1-1.649-2.935l7.151-4.021a1.682 1.682 0 0 1 1.633-.008l7.333 4.02a1.683 1.683 0 0 1 .666 2.285 1.68 1.68 0 0 1-1.476.876z" fill="#35a5b6"/></g></svg>