<svg width="400" height="300" xmlns="http://www.w3.org/2000/svg" xmlns:xlink="http://www.w3.org/1999/xlink"><defs><path id="a" d="M.002 0h161.763v159.666H.002z"/><path id="c" d="M2.25 2.596h4.125v3.98H2.25z"/><path id="e" d="M.36.598h85.022V129H.36z"/></defs><g fill="none" fill-rule="evenodd"><path fill="#CCDBDD" d="M0 0h400v300H0z"/><path d="M241.894 163.115c-11.869 3.623-24.894-5.047-24.894-5.047s6.238-14.551 18.114-18.183c11.869-3.623 24.886 5.047 24.886 5.047s-6.23 14.56-18.106 18.183" fill="#FFF"/><g transform="translate(120 56)"><mask id="b" fill="#fff"><use xlink:href="#a"/></mask><path d="M61.91 159.666c-.484 0-.968-.064-1.459-.185-35.59-9.29-60.45-41.537-60.45-78.433 0-44.686 36.283-81.049 80.88-81.049 44.603 0 80.886 36.363 80.886 81.049 0 34.99-22.258 65.905-55.375 76.923a5.753 5.753 0 0 1-7.29-3.664 5.776 5.776 0 0 1 3.657-7.305c28.388-9.452 47.464-35.952 47.464-65.954 0-38.317-31.103-69.49-69.343-69.49-38.232 0-69.343 31.173-69.343 69.49 0 31.633 21.315 59.279 51.822 67.245 3.077.8 4.93 3.956 4.133 7.047a5.783 5.783 0 0 1-5.583 4.326" fill="#FFF" mask="url(#b)"/></g><g transform="translate(118 235)"><mask id="d" fill="#fff"><use xlink:href="#c"/></mask></g><g transform="translate(145 113)"><mask id="f" fill="#fff"><use xlink:href="#e"/></mask><path d="M83.146 59.396c-2.813-2.201-5.954-1.597-8.615 1.846-4.4 5.708-7.749 10.046-10.465 13.553V62.201c0-.048-.008-.088-.008-.129.112-9.933-1.315-30.976-14.265-44.706C32.363-1.138.638.644.638.644S-2.816 32.42 14.62 50.922c10.859 11.513 28.249 16.69 38.057 16.69-.016 32.66-.008 17.995.024 54.752 0 4.055 2.196 6.555 5.538 6.635 3.446.089 5.786-2.588 5.826-6.732v-28.8l19.449-25.21c2.628-3.42 2.46-6.652-.369-8.861" fill="#FFF" mask="url(#f)"/></g><path d="M230.713 122.984c-2.085 12.153-15.5 20.016-15.5 20.016s-10.018-11.831-7.925-23.984C209.372 106.863 222.78 99 222.78 99s10.025 11.831 7.933 23.984M239 232h-.95v-7.868L234.4 232h-.883l-3.716-7.868V232h-.95v-10h.95l4.12 8.804 4.13-8.804H239v10zm-14.541-9.064V232h-.941v-9.064H220V222h7.977v.936h-3.518z" fill="#FFF"/></g></svg>