<svg xmlns="http://www.w3.org/2000/svg" xmlns:xlink="http://www.w3.org/1999/xlink" width="80" height="60"><path fill="#614425" d="M0 0h80v60H0z"/><path d="M55.236 41.567a3.165 3.165 0 0 1-3.165 3.165H26.644a3.165 3.165 0 0 1-3.165-3.165V17.87a3.165 3.165 0 0 1 3.165-3.165h25.428a3.165 3.165 0 0 1 3.165 3.165v23.697z" fill="#cbe5e9"/><circle cx="39.507" cy="24.5" r="6.703" fill="#fff"/><path d="M39.507 21.814c.147.615.28 1.23.448 1.839a1.4 1.4 0 0 0 .311.55c.41.449.439 1.099.041 1.521-.418.443-1.061.478-1.511.079-.452-.4-.492-1.023-.125-1.514.134-.18.245-.396.304-.613.168-.609.302-1.229.452-1.844l.08-.018z" fill-rule="evenodd" clip-rule="evenodd" fill="#35a5b6"/><defs><circle id="a" cx="39.507" cy="24.5" r="6.706"/></defs><clipPath id="b"><use xlink:href="#a" overflow="visible"/></clipPath><path d="M57.535 17.433c0-.248-.007-.505-.055-.746-.342-1.693-1.655-2.688-3.534-2.688-9.615-.002-19.228-.002-28.841 0-2.354 0-3.688 1.336-3.688 3.705v15.497c0 4.48-.005 6.378.001 10.858.005 2.083 1.403 3.473 3.453 3.473 9.748.002 19.494.002 29.241 0 2.031 0 3.424-1.399 3.424-3.438V32.081c.001-4.882.002-9.766-.001-14.648zm-23.027 6.92c-.022-.591-.644-.269-1.042-.433.074-1.316.575-2.471 1.421-3.477.4.117.591.905 1.081.409.442-.448-.254-.672-.395-1.016.662-.775 2.1-1.386 3.45-1.471.199.333-.223 1.023.459 1.032.652.011.291-.651.478-1.032 1.309.068 2.443.578 3.451 1.409-.112.41-.885.622-.393 1.095.476.457.659-.275 1.057-.416.854.971 1.324 2.122 1.442 3.528-.224 0-.436-.053-.601.014-.188.073-.33.252-.495.386.165.131.307.31.494.387.155.064.355.013.589.013-.07 1.383-.583 2.52-1.545 3.686-.141-.212-.222-.449-.389-.554-.143-.089-.38-.027-.575-.034 0 .195-.052.409.017.576.07.172.259.295.416.462-1.981 1.997-5.76 2.004-7.883.019.141-.153.33-.287.408-.47.072-.165.021-.386.027-.581-.194.004-.431-.062-.572.027-.168.108-.253.345-.395.555-.969-1.148-1.463-2.297-1.559-3.606.378-.213 1.08.177 1.054-.508zm4.973 7.909a8.015 8.015 0 0 0 7.984-7.3c1.62-.212 6.13 1.65 6.13 1.65v16.897c0 .553-.448 1.002-1.004 1.002H25.687a1.002 1.002 0 0 1-1.004-1.002V26.576S30.173 24.61 31.5 25a8.016 8.016 0 0 0 7.981 7.262zm16.151-7.774c-.498-.183-.946-.346-1.396-.508a39.64 39.64 0 0 0-7.655-1.943c-.371-.056-.44-.29-.561-.542-1.326-2.767-3.536-4.262-6.592-4.245-2.99.021-5.164 1.501-6.458 4.21-.179.372-.373.538-.791.605a41.18 41.18 0 0 0-8.446 2.284c-.103.04-.214.063-.393.116 0-2.453-.015-4.827.009-7.198.012-.775.579-1.289 1.357-1.343.15-.008.301-.002.451-.002H53.85s1.009.146 1.363.621c.355.479.415 1.166.415 1.166.002 2.073.002 4.146.002 6.22.002.164.002.328.002.559z" clip-path="url(#b)" fill="#35a5b6"/><path fill="none" stroke="#35a5b6" stroke-width="1.641" stroke-linecap="round" stroke-linejoin="round" stroke-miterlimit="10" d="M39.357 34.798v5.684"/><path d="M53.808 24.5l-1.235-.45a35.204 35.204 0 0 0-6.78-1.721c-.329-.05-.391-.257-.497-.48-1.174-2.451-3.132-3.775-5.838-3.76-2.649.018-4.574 1.329-5.719 3.729-.159.329-.331.477-.701.536a36.443 36.443 0 0 0-7.479 2.023c-.092.035-.189.056-.349.103 0-2.172-.012-4.275.008-6.375.01-.686.513-1.142 1.202-1.189.134-.007.267-.003.4-.003h25.412s.894.13 1.207.551c.314.423.367 1.032.367 1.032.002 1.836.002 3.672.002 5.509v.495z" fill="#35a5b6"/></svg>